<?xml version="1.0" encoding="utf-8"?>
<!-- Generator: Adobe Illustrator 21.1.0, SVG Export Plug-In . SVG Version: 6.00 Build 0)  -->
<!DOCTYPE svg PUBLIC "-//W3C//DTD SVG 1.1//EN" "http://www.w3.org/Graphics/SVG/1.1/DTD/svg11.dtd" [
	<!ENTITY st0 "fill:#D71437;">
	<!ENTITY st1 "fill:#222B43;">
]>
<svg version="1.1" id="Layer_1" xmlns="http://www.w3.org/2000/svg" xmlns:xlink="http://www.w3.org/1999/xlink" x="0px" y="0px"
	 viewBox="0 0 87 87" style="enable-background:new 0 0 87 87;" xml:space="preserve">
<path style="&st0;" d="M49.1,53.7c0,0.9-0.8,1.7-1.7,1.7s-1.7-0.8-1.7-1.7c0-0.9,0.8-1.7,1.7-1.7S49.1,52.8,49.1,53.7z M14.1,48.6
	c-0.9,0-1.7,0.8-1.7,1.7v3.4c0,0.9,0.8,1.7,1.7,1.7s1.7-0.8,1.7-1.7v-3.4C15.8,49.4,15,48.6,14.1,48.6z M14.1,58.8
	c-0.9,0-1.7,0.8-1.7,1.7v3.9c0,0.9,0.8,1.7,1.7,1.7s1.7-0.8,1.7-1.7v-3.9C15.8,59.6,15,58.8,14.1,58.8z M14.1,69.5
	c-0.9,0-1.7,0.8-1.7,1.7v3.4c0,0.9,0.8,1.7,1.7,1.7s1.7-0.8,1.7-1.7v-3.4C15.8,70.3,15,69.5,14.1,69.5z M20.9,48.6
	c-0.9,0-1.7,0.8-1.7,1.7v3.4c0,0.9,0.8,1.7,1.7,1.7s1.7-0.8,1.7-1.7v-3.4C22.6,49.4,21.8,48.6,20.9,48.6z M20.9,58.8
	c-0.9,0-1.7,0.8-1.7,1.7v3.9c0,0.9,0.8,1.7,1.7,1.7s1.7-0.8,1.7-1.7v-3.9C22.6,59.6,21.8,58.8,20.9,58.8z M20.9,69.5
	c-0.9,0-1.7,0.8-1.7,1.7v3.4c0,0.9,0.8,1.7,1.7,1.7s1.7-0.8,1.7-1.7v-3.4C22.6,70.3,21.8,69.5,20.9,69.5z M71.2,52h-17
	c-0.9,0-1.7,0.8-1.7,1.7s0.8,1.7,1.7,1.7h17c0.9,0,1.7-0.8,1.7-1.7S72.1,52,71.2,52z"/>
<path style="&st1;" d="M26,21.4H9c-0.9,0-1.7,0.8-1.7,1.7c0,1.2,0,19.3,0,20.4c0,0.9,0.8,1.7,1.7,1.7h17c0.9,0,1.7-0.8,1.7-1.7
	c0-1,0-19.2,0-20.4C27.7,22.2,26.9,21.4,26,21.4z M24.3,41.8H10.7v-3.4h13.6V41.8z M24.3,35H10.7v-3.4h13.6V35z M24.3,28.2H10.7
	v-3.4h13.6V28.2z M85.3,38.4H35v-26c0-0.9-0.8-1.7-1.7-1.7H17.5V5.1c0-0.9-0.8-1.7-1.7-1.7c-0.9,0-1.7,0.8-1.7,1.7v5.6h-3.4v-9
	C10.7,0.8,9.9,0,9,0C8.1,0,7.3,0.8,7.3,1.7v9H1.7c-0.9,0-1.7,0.8-1.7,1.7v72.9C0,86.2,0.8,87,1.7,87c0.9,0,82,0,83.6,0
	c0.9,0,1.7-0.8,1.7-1.7V40.1C87,39.2,86.2,38.4,85.3,38.4z M31.6,40.1v43.5H3.4V14.1h28.2V40.1z M52.5,83.6h-6.8V69.5h6.8V83.6z
	 M62.7,83.6h-6.8V69.5h6.8V83.6z M72.9,83.6h-6.8V69.5h6.8V83.6z M83.6,83.6h-7.3V67.8c0-0.9-0.8-1.7-1.7-1.7c-1,0-29,0-30.6,0
	c-0.9,0-1.7,0.8-1.7,1.7v15.8H35V41.8h48.6V83.6z M78,45.2H40.6c-0.9,0-1.7,0.8-1.7,1.7v13.6c0,0.9,0.8,1.7,1.7,1.7H78
	c0.9,0,1.7-0.8,1.7-1.7V46.9C79.7,46,78.9,45.2,78,45.2z M76.3,58.8h-34V48.6h34V58.8z M67.3,7.8c-2.7,0-5.3,1.4-6.9,3.5
	c-0.5-0.1-1.1-0.2-1.6-0.2c-4.1,0-7.5,2.9-8.3,6.8h-0.2c-2.8,0-5.1,2.3-5.1,5.1s2.3,5.1,5.1,5.1h17c2.8,0,5.1-2.3,5.1-5.1v0
	c2.1-1.6,3.4-4.1,3.4-6.8C75.8,11.6,72,7.8,67.3,7.8z M67.3,24.8h-17c-0.9,0-1.7-0.8-1.7-1.7s0.8-1.7,1.7-1.7H52
	c0.9,0,1.7-0.8,1.7-1.7c0-2.8,2.3-5.1,5.1-5.1c0.6,0,1.2,0.1,1.8,0.3c0,0,0,0,0,0c2,0.7,3.3,2.7,3.3,4.8c0,0.9,0.8,1.7,1.7,1.7h1.7
	c0.8,0,1.5,0.5,1.6,1.3c0,0.1,0.1,0.3,0.1,0.4C69,24,68.2,24.8,67.3,24.8z M71.1,19.7c-0.9-1.1-2.3-1.7-3.8-1.7h-0.2
	c-0.4-2.1-1.7-4-3.5-5.3c0.9-1,2.2-1.5,3.6-1.5c2.8,0,5.1,2.3,5.1,5.1C72.4,17.6,71.9,18.8,71.1,19.7z"/>
</svg>
