<?xml version="1.0" encoding="utf-8"?>
<!-- Generator: Adobe Illustrator 21.1.0, SVG Export Plug-In . SVG Version: 6.00 Build 0)  -->
<!DOCTYPE svg PUBLIC "-//W3C//DTD SVG 1.1//EN" "http://www.w3.org/Graphics/SVG/1.1/DTD/svg11.dtd" [
	<!ENTITY st0 "fill:#222B43;">
	<!ENTITY st1 "fill:#D71437;">
]>
<svg version="1.1" id="Layer_1" xmlns="http://www.w3.org/2000/svg" xmlns:xlink="http://www.w3.org/1999/xlink" x="0px" y="0px"
	 viewBox="0 0 108.9 108.9" style="enable-background:new 0 0 108.9 108.9;" xml:space="preserve">
<path style="&st0;" d="M53.9,95.2c0.9-1.3,1.4-2.8,1.4-4.4c0-4.1-3.3-7.4-7.4-7.4H11.7c-2,0-3.9,0.8-5.3,2.2C5,87,4.2,88.8,4.2,90.8
	c0,1.6,0.5,3.2,1.4,4.4C2.3,97,0,100.6,0,104.6v2.1c0,1.2,1,2.1,2.1,2.1h55.3c1.2,0,2.1-1,2.1-2.1v-2.1
	C59.6,100.6,57.2,97,53.9,95.2z M9.4,88.6c0.6-0.6,1.4-0.9,2.3-0.9h36.2c1.8,0,3.2,1.4,3.2,3.2c0,0.9-0.3,1.7-0.9,2.3
	c-0.6,0.6-1.4,0.9-2.3,0.9H11.7c-1.8,0-3.2-1.4-3.2-3.2C8.5,90,8.8,89.2,9.4,88.6z M4.2,104.6c0-3.5,2.9-6.4,6.4-6.4h1.1h36.2h1.1
	c3.5,0,6.4,2.9,6.4,6.4H4.2z M106.9,89.4c-0.7-1.1-1.6-2.1-2.6-2.9l-9.9-8.7c-0.1-0.1-0.2-0.2-0.3-0.3c-0.2-0.2-0.4-0.3-0.6-0.4
	l-6-5.2L59.7,47.5c1.1-1.2,1.8-2.7,1.8-4.4c0-1.7-0.7-3.3-1.9-4.5c-0.5-0.5-1.1-0.9-1.8-1.2l2.6-2.6c0.7,0.2,1.5,0.3,2.2,0.3
	c2.2,0,4.4-0.8,6-2.5c1.6-1.6,2.5-3.7,2.5-6s-0.9-4.4-2.5-6l-18-18C49,0.9,46.9,0,44.6,0c-2.3,0-4.4,0.9-6,2.5
	c-2.2,2.2-3,5.4-2.2,8.2L10.7,36.4c-0.7-0.2-1.4-0.3-2.2-0.3c-2.3,0-4.4,0.9-6,2.5c-3.3,3.3-3.3,8.7,0,12l18,18
	c1.7,1.7,3.8,2.5,6,2.5c2.2,0,4.4-0.8,6-2.5c2.2-2.2,3-5.4,2.2-8.2l2.6-2.6c0.3,0.6,0.7,1.2,1.2,1.8c1.2,1.2,2.8,1.9,4.5,1.9
	c1.7,0,3.2-0.6,4.4-1.8l29.6,34c0.1,0.1,0.2,0.2,0.3,0.4c0,0,0.1,0.1,0.1,0.1l8.8,10.1c0.2,0.3,0.5,0.5,0.7,0.8
	c2.4,2.4,5.6,3.7,9,3.7c0.6,0,1.2,0,1.8-0.1c4-0.6,7.5-3,9.5-6.6C109.6,98.2,109.4,93.2,106.9,89.4z M41.6,5.5
	c0.8-0.8,1.9-1.2,3-1.2c1.1,0,2.2,0.4,3,1.2l18,18c0.8,0.8,1.2,1.9,1.2,3s-0.4,2.2-1.2,3c-1.7,1.7-4.4,1.7-6,0l-18-18c0,0,0,0,0,0
	C39.9,9.9,39.9,7.2,41.6,5.5z M29.6,65.7c-1.7,1.7-4.4,1.7-6,0l-18-18c-1.7-1.7-1.7-4.4,0-6c0.8-0.8,1.9-1.2,3-1.2
	c1.1,0,2.2,0.4,3,1.2l18.1,18.1C31.2,61.3,31.2,64,29.6,65.7z M38.5,50.7l-5.9,5.9l-18-18l24.1-24.1l18,18l-6,6c0,0,0,0-0.1,0.1
	L38.5,50.7C38.6,50.6,38.5,50.7,38.5,50.7z M46.1,55.1C46.1,55.1,46.1,55.1,46.1,55.1l-1.5,1.5c-0.4,0.4-0.9,0.6-1.5,0.6
	c-0.6,0-1.1-0.2-1.5-0.6c-0.4-0.4-0.6-0.9-0.6-1.5c0-0.6,0.2-1.1,0.6-1.5l12.1-12.1c0.8-0.8,2.2-0.8,3,0c0.4,0.4,0.6,0.9,0.6,1.5
	c0,0.6-0.2,1.1-0.6,1.5l-1.5,1.5c0,0,0,0,0,0L46.1,55.1z M50.5,56.7l6.2-6.2l26.3,23l-9.6,9.6L50.5,56.7z M76.2,86.3l10-10l3.2,2.8
	L79,89.5L76.2,86.3z M103.6,100.1c-1.4,2.5-3.7,4.1-6.4,4.4c-2.7,0.4-5.3-0.5-7.2-2.4c-0.2-0.2-0.3-0.3-0.5-0.5c0,0,0,0,0,0
	l-7.7-8.9l10.8-10.8l8.9,7.7c0,0,0,0,0,0c0.7,0.6,1.3,1.2,1.8,2C105,94.2,105.1,97.6,103.6,100.1z"/>
<path style="&st1;" d="M25,40.1c-0.8,0.8-2.2,0.8-3,0c-0.8-0.8-0.8-2.2,0-3c0.8-0.8,2.2-0.8,3,0C25.9,37.9,25.9,39.3,25,40.1z
	 M40.1,22c-0.8-0.8-2.2-0.8-3,0l-9,9c-0.8,0.8-0.8,2.2,0,3c0.4,0.4,1,0.6,1.5,0.6c0.5,0,1.1-0.2,1.5-0.6l9-9
	C40.9,24.2,40.9,22.9,40.1,22z"/>
</svg>
