<?xml version="1.0" encoding="utf-8"?>
<!-- Generator: Adobe Illustrator 21.1.0, SVG Export Plug-In . SVG Version: 6.00 Build 0)  -->
<!DOCTYPE svg PUBLIC "-//W3C//DTD SVG 1.1//EN" "http://www.w3.org/Graphics/SVG/1.1/DTD/svg11.dtd" [
	<!ENTITY st0 "fill:#222B43;">
	<!ENTITY st1 "fill:#D71437;">
]>
<svg version="1.1" id="Layer_1" xmlns="http://www.w3.org/2000/svg" xmlns:xlink="http://www.w3.org/1999/xlink" x="0px" y="0px"
	 viewBox="0 0 119 120.5" style="enable-background:new 0 0 119 120.5;" xml:space="preserve">
<path style="&st0;" d="M115,91.6V25.9c0-2.2-1.8-3.9-3.9-3.9H91.4c-2.2,0-3.9,1.8-3.9,3.9v53.2c0,1.1,0.9,2,2,2h3.9c1.1,0,2-0.9,2-2
	c0-1.1-0.9-2-2-2h-2v-3.9h2c1.1,0,2-0.9,2-2s-0.9-2-2-2h-2v-3.9h5.9c1.1,0,2-0.9,2-2c0-1.1-0.9-2-2-2h-5.9v-3.9h2c1.1,0,2-0.9,2-2
	c0-1.1-0.9-2-2-2h-2v-3.9h2c1.1,0,2-0.9,2-2s-0.9-2-2-2h-2v-3.9h2c1.1,0,2-0.9,2-2c0-1.1-0.9-2-2-2h-2v-3.9h5.9c1.1,0,2-0.9,2-2
	c0-1.1-0.9-2-2-2h-5.9v-3.9h19.7V88c-2.8-1.9-6.2-3-9.9-3c-9.8,0-17.7,8-17.7,17.7c0,3.6,1.1,7,3,9.9H32.2V92.9h3.9v5.9
	c0,1.1,0.9,2,2,2c1.1,0,2-0.9,2-2v-5.9h3.9v2c0,1.1,0.9,2,2,2c1.1,0,2-0.9,2-2v-2h3.9v2c0,1.1,0.9,2,2,2c1.1,0,2-0.9,2-2v-2h4v2
	c0,1.1,0.9,2,2,2c1.1,0,2-0.9,2-2v-2h3.9v5.9c0,1.1,0.9,2,2,2c1.1,0,2-0.9,2-2v-5.9h3.9v2c0,1.1,0.9,2,2,2s2-0.9,2-2v-4
	c0-1.1-0.9-2-2-2H32.2c-2.3,0-3.9,1.7-3.9,3.9v19.7c0,2.3,1.7,3.9,3.9,3.9h57.9c3,2.4,6.9,3.9,11.1,3.9c9.8,0,17.7-8,17.7-17.7
	C119,98.5,117.5,94.6,115,91.6z M101.2,116.5c-7.6,0-13.8-6.2-13.8-13.8s6.2-13.8,13.8-13.8s13.8,6.2,13.8,13.8
	S108.8,116.5,101.2,116.5z M103.2,16c0-1.1-0.9-2-2-2H24.4c0-6.5-5.3-11.8-11.8-11.8S0.7,7.5,0.7,14v94.6c0,6.5,5.3,11.8,11.8,11.8
	h9.9c1.1,0,2-0.9,2-2c0-1.1-0.9-2-2-2h-9.9c-4.3,0-7.9-3.5-7.9-7.9s3.5-7.9,7.9-7.9s7.9,3.5,7.9,7.9c0,1.1,0.9,2,2,2
	c1.1,0,2-0.9,2-2V18h76.9C102.3,18,103.2,17.1,103.2,16z M20.4,99.9c-2.1-1.9-4.9-3-7.9-3s-5.8,1.2-7.9,3V14c0-4.3,3.5-7.9,7.9-7.9
	s7.9,3.5,7.9,7.9V99.9z"/>
<path style="&st1;" d="M101.2,92.9c-5.4,0-9.9,4.4-9.9,9.9c0,5.5,4.4,9.9,9.9,9.9c5.4,0,9.9-4.4,9.9-9.9
	C111.1,97.3,106.7,92.9,101.2,92.9z M101.2,108.6c-3.3,0-5.9-2.7-5.9-5.9c0-3.3,2.7-5.9,5.9-5.9s5.9,2.7,5.9,5.9
	C107.1,106,104.5,108.6,101.2,108.6z M76.2,29.2c0.4,0.4,0.9,0.6,1.4,0.6s1-0.2,1.4-0.6c0.8-0.8,0.8-2,0-2.8L75,22.5
	c-0.2-0.2-0.4-0.3-0.6-0.4c-0.5-0.2-1-0.2-1.5,0c-0.2,0.1-0.5,0.3-0.6,0.4l-3.9,3.9c-0.8,0.8-0.8,2,0,2.8c0.8,0.8,2,0.8,2.8,0
	l0.6-0.6v45.7l-0.6-0.6c-0.8-0.8-2-0.8-2.8,0c-0.8,0.8-0.8,2,0,2.8l3.9,3.9c0.2,0.2,0.4,0.3,0.6,0.4c0.2,0.1,0.5,0.2,0.8,0.2
	s0.5,0,0.8-0.2c0.3-0.1,0.5-0.3,0.6-0.4l3.9-3.9c0.8-0.8,0.8-2,0-2.8c-0.8-0.8-2-0.8-2.8,0l-0.6,0.6V28.7L76.2,29.2z"/>
</svg>
