<?xml version="1.0" encoding="utf-8"?>
<!-- Generator: Adobe Illustrator 21.1.0, SVG Export Plug-In . SVG Version: 6.00 Build 0)  -->
<!DOCTYPE svg PUBLIC "-//W3C//DTD SVG 1.1//EN" "http://www.w3.org/Graphics/SVG/1.1/DTD/svg11.dtd" [
	<!ENTITY st0 "fill:#D71437;">
	<!ENTITY st1 "fill:#222B43;">
]>
<svg version="1.1" id="Layer_1" xmlns="http://www.w3.org/2000/svg" xmlns:xlink="http://www.w3.org/1999/xlink" x="0px" y="0px"
	 viewBox="0 0 99 98.8" style="enable-background:new 0 0 99 98.8;" xml:space="preserve">
<path style="&st0;" d="M36.3,41.1c0,0.9,0.7,1.6,1.6,1.6h6.6c0.9,0,1.6-0.7,1.6-1.6v-9.9c0-0.9-0.7-1.6-1.6-1.6h-6.6
	c-0.9,0-1.6,0.7-1.6,1.6V41.1L36.3,41.1z M39.6,32.8h3.3v6.6h-3.3V32.8z M52.8,41.1c0,0.9,0.7,1.6,1.6,1.6H61c0.9,0,1.6-0.7,1.6-1.6
	v-9.9c0-0.9-0.7-1.6-1.6-1.6h-6.6c-0.9,0-1.6,0.7-1.6,1.6V41.1L52.8,41.1z M56.1,32.8h3.3v6.6h-3.3V32.8L56.1,32.8z M54.5,22.9h6.6
	c0.9,0,1.6-0.7,1.6-1.6v-9.9c0-0.9-0.7-1.6-1.6-1.6h-6.6c-0.9,0-1.6,0.7-1.6,1.6v9.9C52.8,22.2,53.5,22.9,54.5,22.9z M56.1,13h3.3
	v6.6h-3.3V13L56.1,13z M52.8,60.9c0,0.9,0.7,1.6,1.6,1.6H61c0.9,0,1.6-0.7,1.6-1.6V51c0-0.9-0.7-1.6-1.6-1.6h-6.6
	c-0.9,0-1.6,0.7-1.6,1.6V60.9L52.8,60.9z M56.1,52.6h3.3v6.6h-3.3V52.6L56.1,52.6z M38,22.9h6.6c0.9,0,1.6-0.7,1.6-1.6v-9.9
	c0-0.9-0.7-1.6-1.6-1.6H38c-0.9,0-1.6,0.7-1.6,1.6v9.9C36.3,22.2,37,22.9,38,22.9z M39.6,13h3.3v6.6h-3.3V13z M36.3,60.9
	c0,0.9,0.7,1.6,1.6,1.6h6.6c0.9,0,1.6-0.7,1.6-1.6V51c0-0.9-0.7-1.6-1.6-1.6h-6.6c-0.9,0-1.6,0.7-1.6,1.6V60.9L36.3,60.9z
	 M39.6,52.6h3.3v6.6h-3.3V52.6z"/>
<path style="&st1;" d="M71,92.2H24.7c-0.9,0-1.6,0.7-1.6,1.6v3.3c0,0.9,0.7,1.6,1.6,1.6s1.6-0.7,1.6-1.6v-1.6h44.6
	c0.9,0,1.6-0.7,1.6-1.6C72.6,93,71.9,92.2,71,92.2z M21.4,19.6H1.6c-0.9,0-1.6,0.7-1.6,1.6v33c0,0.9,0.7,1.6,1.6,1.6
	s1.6-0.7,1.6-1.6V22.9h18.1c0.9,0,1.6-0.7,1.6-1.6C23.1,20.4,22.4,19.6,21.4,19.6z M79.2,80.7c0,0.9,0.7,1.6,1.6,1.6h6.6
	c0.9,0,1.6-0.7,1.6-1.6v-9.9c0-0.9-0.7-1.6-1.6-1.6h-6.6c-0.9,0-1.6,0.7-1.6,1.6V80.7z M82.5,72.4h3.3V79h-3.3V72.4z M8.2,59.2
	C0.1,59.2,0,80.5,0,80.7c0,4,2.8,7.3,6.6,8.1v8.4c0,0.9,0.7,1.6,1.6,1.6s1.6-0.7,1.6-1.6v-8.4c3.8-0.8,6.6-4.1,6.6-8.1
	C16.5,80.5,16.4,59.2,8.2,59.2z M8.2,85.6c-2.7,0-4.9-2.2-4.9-4.9c0-8.2,2.2-18.1,4.9-18.1s4.9,9.9,4.9,18.1
	C13.2,83.4,11,85.6,8.2,85.6z M18.1,49.3h-6.6c-0.9,0-1.6,0.7-1.6,1.6v3.3c0,0.9,0.7,1.6,1.6,1.6c0.9,0,1.6-0.7,1.6-1.6v-1.6h3.3
	v8.2c0,0.9,0.7,1.6,1.6,1.6c0.9,0,1.6-0.7,1.6-1.6V51C19.8,50.1,19.1,49.3,18.1,49.3z M80.9,42.7h6.6c0.9,0,1.6-0.7,1.6-1.6v-9.9
	c0-0.9-0.7-1.6-1.6-1.6h-6.6c-0.9,0-1.6,0.7-1.6,1.6v9.9C79.2,42,80,42.7,80.9,42.7z M82.5,32.8h3.3v6.6h-3.3V32.8z M18.1,29.5h-6.6
	c-0.9,0-1.6,0.7-1.6,1.6v9.9c0,0.9,0.7,1.6,1.6,1.6h6.6c0.9,0,1.6-0.7,1.6-1.6v-9.9C19.8,30.3,19.1,29.5,18.1,29.5z M16.5,39.4h-3.3
	v-6.6h3.3V39.4L16.5,39.4z M97.4,19.6H77.6c-0.9,0-1.6,0.7-1.6,1.6c0,0.9,0.7,1.6,1.6,1.6h18.1v66.3c-0.5-0.2-1.1-0.3-1.6-0.3
	c-0.3,0-0.6,0-0.8,0.1c-1.1-2.1-3.3-3.4-5.8-3.4c-2.5,0-4.6,1.3-5.8,3.4c-0.3,0-0.6-0.1-0.8-0.1c-2.7,0-4.9,2.2-4.9,4.9
	s2.2,4.9,4.9,4.9h13.2c2.7,0,4.9-2.2,4.9-4.9V21.2C99,20.4,98.3,19.6,97.4,19.6z M94.1,95.5H80.9c-0.9,0-1.6-0.7-1.6-1.6
	s0.7-1.6,1.6-1.6c0.3,0,0.6,0.1,0.9,0.3c0.5,0.3,1,0.3,1.5,0.1c0.5-0.2,0.9-0.6,1-1.2c0.3-1.5,1.7-2.6,3.2-2.6
	c1.5,0,2.9,1.1,3.2,2.6c0.1,0.5,0.5,1,1,1.2c0.5,0.2,1.1,0.1,1.5-0.1c1.1-0.7,2.5,0.2,2.5,1.4C95.7,94.8,95,95.5,94.1,95.5z
	 M48.3,79.5c-0.3,0.3-0.5,0.7-0.5,1.2c0,0.4,0.2,0.9,0.5,1.2c0.3,0.3,0.7,0.5,1.2,0.5s0.9-0.2,1.2-0.5c0.3-0.3,0.5-0.7,0.5-1.2
	c0-0.4-0.2-0.9-0.5-1.2C50.1,78.9,49,78.9,48.3,79.5z M33,70.8c0,0.9,0.7,1.6,1.6,1.6h4.9v14.8c0,0.9,0.7,1.6,1.6,1.6
	c0.9,0,1.6-0.7,1.6-1.6V72.4h13.2v14.8c0,0.9,0.7,1.6,1.6,1.6s1.6-0.7,1.6-1.6V72.4h4.9c0.9,0,1.6-0.7,1.6-1.6
	c0-0.9-0.7-1.6-1.6-1.6H34.6C33.7,69.1,33,69.9,33,70.8z M79.2,60.9c0,0.9,0.7,1.6,1.6,1.6h6.6c0.9,0,1.6-0.7,1.6-1.6V51
	c0-0.9-0.7-1.6-1.6-1.6h-6.6c-0.9,0-1.6,0.7-1.6,1.6V60.9z M82.5,52.6h3.3v6.6h-3.3V52.6z M71-0.2H28.1c-0.9,0-1.6,0.7-1.6,1.6v85.8
	c0,0.9,0.7,1.6,1.6,1.6s1.6-0.7,1.6-1.6V3.1h39.6v84.2c0,0.9,0.7,1.6,1.6,1.6c0.9,0,1.6-0.7,1.6-1.6V1.5C72.6,0.6,71.9-0.2,71-0.2z"
	/>
</svg>
