<?xml version="1.0" encoding="utf-8"?>
<!-- Generator: Adobe Illustrator 21.1.0, SVG Export Plug-In . SVG Version: 6.00 Build 0)  -->
<!DOCTYPE svg PUBLIC "-//W3C//DTD SVG 1.1//EN" "http://www.w3.org/Graphics/SVG/1.1/DTD/svg11.dtd" [
	<!ENTITY st0 "fill:#D71437;">
	<!ENTITY st1 "fill:#222B43;">
]>
<svg version="1.1" id="Layer_1" xmlns="http://www.w3.org/2000/svg" xmlns:xlink="http://www.w3.org/1999/xlink" x="0px" y="0px"
	 viewBox="0 0 99.9 99.9" style="enable-background:new 0 0 99.9 99.9;" xml:space="preserve">
<path style="&st0;" d="M20.7,89.5c0,1.1-0.9,2-2,2s-2-0.9-2-2s0.9-2,2-2S20.7,88.4,20.7,89.5z M82.3,87.6H26.5c-1.1,0-2,0.9-2,2
	c0,1.1,0.9,2,2,2h55.8c1.1,0,2-0.9,2-2C84.3,88.4,83.4,87.6,82.3,87.6z"/>
<path style="&st1;" d="M97.9,96h-2V82.8c2.2-0.8,3.9-2.9,3.9-5.5c0-3.2-2.6-5.9-5.9-5.9H68.9c1-0.5,2.1-1.1,3-1.7
	c5.4-3.4,9.8-8.2,12.7-13.9H85c3.2,0,5.9-2.6,5.9-5.9c0-3.2-2.6-5.9-5.9-5.9H64.7c2.7-2.1,4.8-4.8,6.1-8c2.5-0.6,4.4-2.9,4.4-5.7
	c0-3.2-2.6-5.9-5.9-5.9H56.7c0.7-1.1,1-2.5,1-3.9c0-3.6-2.5-6.7-5.9-7.6V9.8c0-3.2,2.6-5.9,5.9-5.9c3.2,0,5.9,2.6,5.9,5.9v5.1
	c0,1.1,0.9,2,2,2c1.1,0,2-0.9,2-2V9.8c0-5.4-4.4-9.8-9.8-9.8c-3.2,0-6,1.5-7.8,3.9C48.1,1.5,45.2,0,42.1,0c-5.4,0-9.8,4.4-9.8,9.8
	v5.1c0,1.1,0.9,2,2,2c1.1,0,2-0.9,2-2V9.8c0-3.2,2.6-5.9,5.9-5.9c3.2,0,5.9,2.6,5.9,5.9v3.4c-3.4,0.9-5.9,3.9-5.9,7.6
	c0,1.4,0.4,2.8,1,3.9H30.4c-3.2,0-5.9,2.6-5.9,5.9c0,2.7,1.9,5,4.4,5.7c1.3,3.2,3.4,6,6.1,8H14.8c-3.2,0-5.9,2.6-5.9,5.9
	c0,3.2,2.6,5.9,5.9,5.9h0.4c2.9,5.7,7.3,10.4,12.7,13.9c1,0.6,2,1.2,3,1.7H5.9C2.6,71.4,0,74,0,77.2c0,2.5,1.6,4.7,3.9,5.5V96H2
	c-1.1,0-2,0.9-2,2c0,1.1,0.9,2,2,2c0.7,0,94.6,0,96,0c1.1,0,2-0.9,2-2C99.9,96.8,99,96,97.9,96z M49.9,16.8c2.2,0,3.9,1.7,3.9,3.9
	s-1.7,3.9-3.9,3.9c-2.2,0-3.9-1.7-3.9-3.9S47.8,16.8,49.9,16.8z M30.4,32.4c-1.1,0-2-0.9-2-2c0-1.1,0.9-2,2-2h39c1.1,0,2,0.9,2,2
	c0,1.1-0.9,2-2,2H30.4z M33.4,36.3h33.1c-1.1,1.9-2.6,3.6-4.4,4.9c-2.6,1.9-5.7,2.9-8.9,2.9h-6.5C41.1,44.1,36,41,33.4,36.3z
	 M14.8,51.9c-1.1,0-2-0.9-2-2c0-1.1,0.9-2,2-2c3.4,0,68.5,0,70.2,0c1.1,0,2,0.9,2,2c0,1.1-0.9,2-2,2H14.8z M19.7,55.8h60.5
	c-5.8,9.6-16.3,15.6-27.6,15.6h-5.3C36,71.4,25.5,65.4,19.7,55.8z M92.1,96H7.8V83.1h84.3V96z M94,79.2H5.9c-1.1,0-2-0.9-2-2
	c0-1.1,0.9-2,2-2H94c1.1,0,2,0.9,2,2C96,78.3,95.1,79.2,94,79.2z"/>
</svg>
