<?xml version="1.0" encoding="utf-8"?>
<!-- Generator: Adobe Illustrator 21.1.0, SVG Export Plug-In . SVG Version: 6.00 Build 0)  -->
<!DOCTYPE svg PUBLIC "-//W3C//DTD SVG 1.1//EN" "http://www.w3.org/Graphics/SVG/1.1/DTD/svg11.dtd" [
	<!ENTITY st0 "fill:#D71437;">
	<!ENTITY st1 "fill:#222B43;">
]>
<svg version="1.1" id="Layer_1" xmlns="http://www.w3.org/2000/svg" xmlns:xlink="http://www.w3.org/1999/xlink" x="0px" y="0px"
	 viewBox="0 0 88.2 74.6" style="enable-background:new 0 0 88.2 74.6;" xml:space="preserve">
<path style="&st0;" d="M70.9,66.4h-9.7c-0.6,0-1.2,0.5-1.2,1.2s0.5,1.2,1.2,1.2h9.7c0.6,0,1.2-0.5,1.2-1.2S71.5,66.4,70.9,66.4z
	 M61.2,64.4h6.5c0.6,0,1.2-0.5,1.2-1.2c0-0.6-0.5-1.2-1.2-1.2h-6.5c-0.6,0-1.2,0.5-1.2,1.2C60,63.9,60.5,64.4,61.2,64.4z M70.9,57.8
	h-9.7c-0.6,0-1.2,0.5-1.2,1.2c0,0.6,0.5,1.2,1.2,1.2h9.7c0.6,0,1.2-0.5,1.2-1.2C72,58.3,71.5,57.8,70.9,57.8z"/>
<path style="&st1;" d="M84.5,44.9c0-2-0.6-4-1.8-5.6l-1.3-1.8c6.5-6.1,8.6-15.5,5.4-23.8C83.4,5.4,75.5,0,66.5,0
	c-7.9,0-15.2,4.3-19,11.2c-5.6-0.6-11.2,0.5-16.1,3.2c-3.7,2.2-5.8,5.2-5.8,8.4c0,0,0,0,0,0v0c0,0,0,0,0,0.1c0,0,0,0,0,0v4.5
	l-3.1,1.8c-0.2,0.1-0.4,0.3-0.5,0.6l-0.8,2l-4.7,0.1c-0.6,0-1.1,0.5-1.1,1.1l-0.1,2.4L10,35.7c-0.6,0-1.1,0.5-1.1,1.1l-0.1,2.7
	L3,39.7c-0.2,0-0.4,0.1-0.6,0.2l-1.9,1.1C0.2,41.2,0,41.5,0,42l0.1,5.9v4.8v0v0v0c0,0,0,0.1,0,0.1c0,0.1,0,0.2,0.1,0.3
	c0,0,0.1,0.1,0.1,0.1c0,0.1,0.1,0.2,0.2,0.2c0.1,0,0.1,0.1,0.2,0.1c0.1,0,0.1,0.1,0.2,0.1c0.1,0,0.2,0,0.3,0.1c0.1,0,0.1,0,0.2,0h0
	l0,0l0,0l10.1,0.3h0h0c0,0,0,0,0,0c0.1,0,0.2,0,0.4-0.1c0,0,0.1,0,0.1,0c0,0,0.1,0,0.1,0L38.8,38c1.3,0.2,2.6,0.3,3.9,0.3
	c2.9,0,5.8-0.4,8.6-1.3c1.3,1.3,2.7,2.4,4.3,3.3c-0.7,1.4-1.1,3-1.2,4.5v25.4c-0.1,2.3,1.7,4.3,4,4.4h22.1c2.3-0.1,4.1-2.1,4-4.4
	L84.5,44.9L84.5,44.9z M47.5,18.2c0.3-1.8,0.9-3.6,1.8-5.2C52.8,5.9,60.2,1.8,68,2.4C75.8,3,82.5,8.2,85,15.7S85,31.4,79,36.4l0,0
	c-2.1,1.8-4.5,3.1-7.2,3.9c-1.3,0.4-2.7,0.6-4.1,0.7c-0.4-0.6-0.5-1.3-0.2-2c9.4-0.5,16.6-8.4,16.4-17.8c-0.3-9.4-8-16.9-17.4-16.9
	c-6.1,0-11.8,3.2-14.9,8.5c-1,1.7-1.8,3.6-2.1,5.6c-0.2,0.8-0.2,1.7-0.3,2.5c-0.6,0.3-1.3,0.4-2,0.4C47.2,20.3,47.3,19.2,47.5,18.2z
	 M56.6,13.9L56.6,13.9c-0.7-0.4-1.4-0.7-2.2-1.1c3.3-4.5,8.8-6.9,14.4-6s10.2,4.7,12,10S81.3,28,77.4,32l-3.2-4.4
	c-1.1-1.5-2.8-2.4-4.7-2.5l0,0c-1.9,0-3.6,0.9-4.7,2.5l-5.3,7.2c-0.6-0.3-1.2-0.7-1.7-1.1c2.4-1.6,4-4.3,4.2-7.2l0,0v-4.8v0
	C62,18.7,60.1,15.9,56.6,13.9z M10.2,51.9l-7.8-0.2v-2.5l7.8,0.2V51.9z M11.1,47l-8.7-0.3l-0.1-4.2l1-0.6l6.5-0.2
	c0.6,0,1.1-0.5,1.1-1.1l0.1-2.7l5.4-0.1c0.6,0,1.1-0.5,1.1-1.1l0.1-2.4l4.4-0.1c0.5,0,0.9-0.3,1.1-0.7l0.9-2.4l4.2-2.5
	c0.8,0.8,1.7,1.4,2.6,2c0.1,0,0.2,0.1,0.3,0.1L9.1,44c-0.6,0.3-0.7,1-0.4,1.6s1,0.7,1.6,0.4l23.5-14.1c0.5,0.2,1.1,0.4,1.7,0.5
	L11.1,47z M37.3,36.2L12.6,51v-2.2L37.3,34V36.2L37.3,36.2z M32.1,28.6L32.1,28.6C29.5,27.1,28,25.1,28,23v-0.1
	c0-2.3,1.7-4.6,4.7-6.4c4.2-2.3,9-3.3,13.8-3c-0.5,1.2-0.8,2.4-1.1,3.6c-0.4,0.1-0.8,0.3-1.1,0.5c-1,0.5-1.7,1.6-1.8,2.7
	c0.1,1.1,0.7,2.1,1.7,2.5c0.5,0.3,1.1,0.5,1.7,0.6c0.5,0.1,1,0.1,1.5,0.1c1.2,0,2.5-0.3,3.5-0.9l0.1-0.1c1-0.5,1.6-1.5,1.7-2.5
	c0-0.7-0.2-1.3-0.7-1.9c0.3-1.2,0.7-2.3,1.3-3.4c0.8,0.3,1.6,0.6,2.3,1.1c2.7,1.6,4.1,3.6,4.1,5.9l0,0v0.1c-0.1,2.2-1.8,4.5-4.7,6.2
	c-0.8,0.5-1.6,0.9-2.5,1.2c-1.3,0.5-2.6,0.9-4,1.2c0,0,0,0-0.1,0C42.5,31.8,36.3,31,32.1,28.6z M44.9,20c0,0.2,0,0.4,0,0.6
	c-0.1-0.1-0.1-0.2-0.1-0.3C44.8,20.2,44.9,20.1,44.9,20z M51.2,34.6c-3.7,1.2-7.6,1.6-11.5,1.2v-2.5c1,0.1,2,0.2,3,0.2
	c2.1,0,4.1-0.2,6.1-0.6c0,0,0,0,0.1,0c1.5-0.3,3-0.8,4.4-1.4c1-0.4,1.9-0.9,2.8-1.4c1.3-0.7,2.4-1.7,3.4-2.7c-0.3,2-1.9,3.9-4.4,5.5
	c0,0-0.1,0-0.1,0.1C53.7,33.6,52.5,34.2,51.2,34.6z M53.6,36.1L53.6,36.1c0.7-0.3,1.3-0.6,1.9-1c0.7,0.6,1.5,1.2,2.4,1.6l-1.2,1.6
	C55.7,37.7,54.6,37,53.6,36.1z M80.5,72.3H58.3c-1-0.1-1.8-1-1.7-2.1V44.9c0-1.5,0.5-3,1.4-4.3l8.5-11.5c0.6-1,1.7-1.5,2.9-1.5
	s2.2,0.6,2.9,1.5l3.4,4.6c-1.3,1-2.7,1.7-4.2,2.3c-1.7-0.9-3.8-0.6-5.1,0.8c-0.2,0.2-0.3,0.3-0.4,0.5c-1.3,1.7-1.1,4.2,0.4,5.7
	c0.1,0.1,0.1,0.1,0.2,0.2c0.8,0.7,1.8,1.1,2.9,1.1c1.2,0,2.3-0.5,3.1-1.3c0.1-0.2,0.3-0.3,0.4-0.5c2.4-0.7,4.6-1.9,6.6-3.4l1.2,1.7
	c0.9,1.2,1.4,2.7,1.4,4.2l0,0v25.4C82.2,71.3,81.5,72.2,80.5,72.3z"/>
</svg>
