<?xml version="1.0" encoding="utf-8"?>
<!-- Generator: Adobe Illustrator 21.1.0, SVG Export Plug-In . SVG Version: 6.00 Build 0)  -->
<!DOCTYPE svg PUBLIC "-//W3C//DTD SVG 1.1//EN" "http://www.w3.org/Graphics/SVG/1.1/DTD/svg11.dtd" [
	<!ENTITY st0 "fill:#FFFFFF;">
	<!ENTITY st1 "fill:#FFFFFF;">
	<!ENTITY st2 "fill:#FFFFFF;">
]>
<svg version="1.1" id="Layer_1" xmlns="http://www.w3.org/2000/svg" xmlns:xlink="http://www.w3.org/1999/xlink" x="0px" y="0px"
	 viewBox="0 0 337 338.5" style="enable-background:new 0 0 337 338.5;" xml:space="preserve">
<path style="&st0;" d="M223.1,209.1v-7.2l-54.3-16.7L115,201.8v7.5c-42.9,8.4-79.2,26.4-99.3,49.6c37.4-16.6,92.2-27.1,153.1-27.1
	s115.7,10.5,153.1,27.1C301.6,235.5,266.7,217.3,223.1,209.1z M167.8,204.2L167.8,204.2C167.8,204.2,167.8,204.2,167.8,204.2
	L167.8,204.2z"/>
<path style="&st1;" d="M117.7,16.8l50.8-15.7l51.3,15.7v19.7l-51.3-16.3l-50.8,16.3V16.8z M117.7,42.7L168.6,27l51.3,15.7v19.7
	L168.6,46l-50.8,16.3V42.7z M117.7,68.6l50.8-15.7l51.3,15.7v19.7l-51.3-16.3l-50.8,16.3V68.6z M117.7,94.5l50.8-15.7l51.3,15.7
	v19.7l-51.3-16.3l-50.8,16.3V94.5z M117.7,120.3l50.8-15.7l51.3,15.7V140l-51.3-16.3L117.7,140V120.3z M117.7,146.2l50.8-15.7
	l51.3,15.7v19.7l-51.3-16.3l-50.8,16.3V146.2z M117.7,172.1l50.8-15.7l51.3,15.7v19.7l-51.3-16.3l-50.8,16.3V172.1z M56.2,60.5
	l52.5-15.8v17.7L56.2,78.8V60.5z M56.2,86.9l52.5-15.8v17.7l-52.5,16.4V86.9z M56.2,113.3l52.5-15.8v17.7l-52.5,16.4V113.3z
	 M56.2,139.7l52.5-15.8v17.7L56.2,158V139.7z M56.2,166.1l52.5-15.8V168l-52.5,16.4V166.1z M56.2,192.5l52.5-15.8v17.7l-52.5,16.4
	V192.5z M280.7,78.8l-52.5-16.4V44.7l52.5,15.8V78.8z M280.7,105.2l-52.5-16.4V71.1l52.5,15.8V105.2z M280.7,131.6l-52.5-16.4V97.5
	l52.5,15.8V131.6z M280.7,158l-52.5-16.4v-17.7l52.5,15.8V158z M280.7,184.4L228.2,168v-17.7l52.5,15.8V184.4z M280.7,210.8
	l-52.5-16.4v-17.7l52.5,15.8V210.8z"/>
<path style="&st2;" d="M15.7,264.5v27.8l7.3,0.2l13.5-28h17l-17.7,35.3l18.7,38.7H36.8l-14.3-29.3h-6.8v29.3H0v-74H15.7z
	 M57.8,264.5v73.3l49.3,0.7v-74H57.8z M91.5,321.8H73.3v-41.7h18.2V321.8z M165.3,264.5h-50v74h16.5l-0.2-22.7h33.7V264.5z
	 M149.5,300h-18.2v-19.8h18.2V300z M172.7,264.5v73.3l49.7,0.7v-74H172.7z M206.7,321.8h-18v-41.7h18V321.8z M230.3,264.5h16.3v28.3
	h17.7v-28.3h16.3v74H264l-0.2-29.8l-17.5,0.3l0.3,29.5h-16.3V264.5z M329.5,263.8l-38.2,0.7l-7.2,74H301l1.5-17.7H319l2.2,17.7H337
	L329.5,263.8z M303.2,304.7l2.2-24.5h10.8l1.8,24.5H303.2z"/>
</svg>
