<?xml version="1.0" encoding="utf-8"?>
<!-- Generator: Adobe Illustrator 21.1.0, SVG Export Plug-In . SVG Version: 6.00 Build 0)  -->
<!DOCTYPE svg PUBLIC "-//W3C//DTD SVG 1.1//EN" "http://www.w3.org/Graphics/SVG/1.1/DTD/svg11.dtd" [
	<!ENTITY st0 "fill:#D71437;">
	<!ENTITY st1 "fill:#222B43;">
]>
<svg version="1.1" id="Layer_1" xmlns="http://www.w3.org/2000/svg" xmlns:xlink="http://www.w3.org/1999/xlink" x="0px" y="0px"
	 viewBox="0 0 92 92" style="enable-background:new 0 0 92 92;" xml:space="preserve">
<path style="&st0;" d="M35.9,57.9c0,2.3-1.5,4.3-3.6,5.1V65c0,1-0.8,1.8-1.8,1.8c-1,0-1.8-0.8-1.8-1.8v-2.1
	c-1.2-0.4-2.3-1.2-3.3-2.3c-0.6-0.8-0.5-1.9,0.2-2.5c0.8-0.6,1.9-0.5,2.5,0.2c0.7,0.9,1.6,1.4,2.3,1.4c1,0,1.8-0.8,1.8-1.8
	s-0.8-1.8-1.8-1.8c-3,0-5.4-2.4-5.4-5.4c0-2.3,1.5-4.3,3.6-5.1v-2.1c0-1,0.8-1.8,1.8-1.8s1.8,0.8,1.8,1.8v2.1
	c0.8,0.3,1.7,0.8,2.6,1.7c0.7,0.7,0.7,1.8,0,2.5c-0.7,0.7-1.8,0.7-2.5,0c-0.6-0.6-1.3-0.9-1.9-0.9c-1,0-1.8,0.8-1.8,1.8
	s0.8,1.8,1.8,1.8C33.5,52.5,35.9,54.9,35.9,57.9z"/>
<path style="&st1;" d="M43.1,54.3c0,1-0.8,1.8-1.8,1.8c-1,0-1.8-0.8-1.8-1.8c0-1,0.8-1.8,1.8-1.8C42.3,52.5,43.1,53.3,43.1,54.3z
	 M19.8,52.5c-1,0-1.8,0.8-1.8,1.8c0,1,0.8,1.8,1.8,1.8c1,0,1.8-0.8,1.8-1.8C21.6,53.3,20.8,52.5,19.8,52.5z M92,48.9v35.9
	c0,4.5-6.7,7.2-13.1,7.2c-4.4,0-8.9-1.3-11.3-3.5c-2.4,2.2-6.9,3.5-11.3,3.5c-0.7,0-1.4,0-2.1-0.1C53.9,92,53.7,92,53.5,92h-41
	C5.6,92,0,86.4,0,79.4V54.3c0-5.9,1.6-11.7,4.7-16.9c3.1-5.2,7.4-9.2,12.3-11.6c0.6-0.3,0.9-0.8,0.9-1.3v-2.5
	c-4.1-0.8-7.2-4.5-7.2-8.8c0-1,0.8-1.8,1.8-1.8s1.8,0.8,1.8,1.8c0,2.5,1.7,4.6,4,5.2c0.4-1.1,1.2-2,2.2-2.6l-5.9-9.3
	c-0.3-0.4-0.4-1-0.2-1.4c0.1-0.5,0.5-0.9,0.9-1.1l7.2-3.6c0.5-0.3,1.1-0.3,1.6,0l6.4,3.2l6.4-3.2c0.5-0.3,1.1-0.3,1.6,0l7.2,3.6
	c0.5,0.2,0.8,0.6,0.9,1.1s0.1,1-0.2,1.4l-5.9,9.3c1,0.6,1.8,1.5,2.2,2.6c2.3-0.6,4-2.7,4-5.2c0-1,0.8-1.8,1.8-1.8
	c1,0,1.8,0.8,1.8,1.8c0,4.3-3.1,8-7.2,8.8v2.5c0,0.5,0.3,1.1,0.9,1.3c5,2.5,9.3,6.5,12.3,11.6c3.1,5.2,4.7,11,4.7,16.9v2.3
	c1.8,0.4,3.4,1,4.7,1.7v-9.4c0-4.5,6.7-7.2,13.1-7.2C85.3,41.7,92,44.4,92,48.9z M24.3,14.9h12.4l5.6-8.8l-4.6-2.3L31.4,7
	c-0.5,0.3-1.1,0.3-1.6,0l-6.4-3.2l-4.6,2.3L24.3,14.9z M37.7,18.5C37.7,18.5,37.7,18.5,37.7,18.5C37.7,18.5,37.7,18.5,37.7,18.5
	H23.4c-1,0-1.8,0.8-1.8,1.8v2.3h18v-2.3C39.5,19.3,38.7,18.5,37.7,18.5z M44.8,88.4c-1-1-1.7-2.2-1.7-3.6V69.5
	c-3.5,2.9-7.9,4.5-12.6,4.5c-10.9,0-19.8-8.9-19.8-19.8s8.9-19.8,19.8-19.8s19.8,8.9,19.8,19.8c0,0.9-0.1,1.7-0.2,2.6
	c1.9-0.5,4-0.8,6.1-0.8c0.4,0,0.8,0,1.3,0v-1.8c0-10.5-6.2-20.9-15.1-25.3c-1.2-0.6-2.1-1.6-2.6-2.8H21.2c-0.5,1.2-1.4,2.2-2.6,2.8
	c-9,4.4-15.1,14.6-15.1,25.3v25.2c0,5,4,9,9,9H44.8z M46.1,58.6c0.4-1.4,0.6-2.9,0.6-4.4c0-8.9-7.3-16.2-16.2-16.2
	s-16.2,7.3-16.2,16.2s7.3,16.2,16.2,16.2c4.9,0,9.5-2.2,12.6-6v-1.2C43.1,61.5,44.2,59.9,46.1,58.6z M65.8,82.6
	c-2.5,1.4-6.1,2.2-9.5,2.2s-7-0.8-9.5-2.2v2.2c0,1.1,2.7,2.9,7.1,3.4c0.8,0.1,1.6,0.2,2.5,0.2c5.4,0,9.5-2.2,9.5-3.6V82.6z
	 M65.8,75.4c-2.5,1.4-6.1,2.2-9.5,2.2s-7-0.8-9.5-2.2v2.2c0,1.4,4.1,3.6,9.5,3.6s9.5-2.2,9.5-3.6V75.4z M65.8,68.2
	c-2.5,1.4-6.1,2.2-9.5,2.2s-7-0.8-9.5-2.2v2.2c0,1.4,4.1,3.6,9.5,3.6s9.5-2.2,9.5-3.6V68.2z M65.8,63.2c0-1-2.4-2.8-6.8-3.4
	c-0.9-0.1-1.8-0.2-2.8-0.2c-2.9,0-5.7,0.6-7.6,1.7c-1.1,0.6-1.9,1.4-1.9,1.9c0,1.4,4.1,3.6,9.5,3.6S65.8,64.7,65.8,63.2z M88.4,82.6
	c-2.5,1.4-6.1,2.2-9.5,2.2c-3.5,0-7-0.8-9.5-2.2v2.2c0,1.4,4.1,3.6,9.5,3.6c5.4,0,9.5-2.2,9.5-3.6V82.6z M88.4,75.4
	c-2.5,1.4-6.1,2.2-9.5,2.2c-3.5,0-7-0.8-9.5-2.2v2.2c0,1.4,4.1,3.6,9.5,3.6c5.4,0,9.5-2.2,9.5-3.6V75.4z M88.4,68.2
	c-2.5,1.4-6.1,2.2-9.5,2.2c-3.5,0-7-0.8-9.5-2.2v2.2c0,1.4,4.1,3.6,9.5,3.6c5.4,0,9.5-2.2,9.5-3.6V68.2z M88.4,61.1
	c-2.5,1.4-6.1,2.2-9.5,2.2c-3.5,0-7-0.8-9.5-2.2v2.2c0,1.4,4.1,3.6,9.5,3.6c5.4,0,9.5-2.2,9.5-3.6V61.1z M88.4,53.9
	c-2.5,1.4-6.1,2.2-9.5,2.2c-3.5,0-7-0.8-9.5-2.2v2.2c0,1.4,4.1,3.6,9.5,3.6c5.4,0,9.5-2.2,9.5-3.6V53.9z M88.4,48.9
	c0-1.4-4.1-3.6-9.5-3.6c-5.4,0-9.5,2.2-9.5,3.6s4.1,3.6,9.5,3.6C84.3,52.5,88.4,50.3,88.4,48.9z"/>
</svg>
