<?xml version="1.0" encoding="utf-8"?>
<!-- Generator: Adobe Illustrator 21.1.0, SVG Export Plug-In . SVG Version: 6.00 Build 0)  -->
<!DOCTYPE svg PUBLIC "-//W3C//DTD SVG 1.1//EN" "http://www.w3.org/Graphics/SVG/1.1/DTD/svg11.dtd" [
	<!ENTITY st0 "fill:#222B43;">
	<!ENTITY st1 "fill:#D71437;">
]>
<svg version="1.1" id="Layer_1" xmlns="http://www.w3.org/2000/svg" xmlns:xlink="http://www.w3.org/1999/xlink" x="0px" y="0px"
	 viewBox="0 0 121 115.8" style="enable-background:new 0 0 121 115.8;" xml:space="preserve">
<path style="&st0;" d="M117.1,78.7c-2.4-1.7-5.5-2.1-8.3-1.1c0,0,0,0-0.1,0l-22.3,8.8c0.1-0.4,0.1-0.9,0.1-1.3
	c0-5.2-4.2-9.5-9.5-9.5H61.7c-0.4,0-0.8-0.1-1.2-0.3l-12.5-7c-2.5-1.4-5.3-2.1-8.1-2.1H24.3v-2.4c0-1.3-1.1-2.4-2.4-2.4H2.3
	c-1.3,0-2.4,1.1-2.4,2.4v42.5c0,1.3,1.1,2.4,2.4,2.4h19.6c1.3,0,2.4-1.1,2.4-2.4V104H26l22.6,9.1c4.4,1.8,9.1,2.7,13.8,2.7
	c5.3,0,10.4-1.1,15.3-3.3c0,0,0,0,0,0l37.6-17.9c3.4-1.4,5.7-4.7,5.7-8.4C120.9,83.2,119.5,80.4,117.1,78.7z M19.5,104H4.6V66.2
	h14.9V104z M113.5,90.3c0,0-0.1,0-0.1,0.1l-37.6,17.9c-4.2,1.9-8.7,2.9-13.3,2.9c-4.1,0-8.2-0.8-12-2.3l-23-9.3
	c-0.3-0.1-0.6-0.2-0.9-0.2h-2.2V70.9h15.6c2,0,4,0.5,5.8,1.5l12.5,7c1.1,0.6,2.3,0.9,3.5,0.9H77c2.6,0,4.7,2.1,4.7,4.7
	c0,1.6-0.9,3.2-2.3,4l0,0c-0.2,0.1-0.3,0.2-0.5,0.3c-0.6,0.3-1.3,0.4-2,0.4h-24c-3.9,0-7.1,3.2-7.1,7.1c0,1.3,1.1,2.4,2.4,2.4
	c1.3,0,2.4-1.1,2.4-2.4c0-1.3,1.1-2.4,2.4-2.4h24c1.6,0,3.1-0.4,4.5-1.2l28.9-11.3c1.4-0.5,2.8-0.3,4,0.5c1.2,0.8,1.9,2.1,1.9,3.6
	C116.2,88,115.1,89.6,113.5,90.3z M118.5,24.2C118.5,24.2,118.4,24.1,118.5,24.2l-28-22.5c-2.6-2.2-6.4-2.2-9.1,0L53.5,24.3
	c0,0,0,0,0,0c-1.5,1.2-2.3,2.9-2.5,4.8c-0.2,1.9,0.4,3.7,1.6,5.2c1.3,1.6,3.3,2.5,5.4,2.5c0.7,0,1.3-0.1,1.9-0.3v31.9
	c0,1.3,1.1,2.4,2.4,2.4h16.5H93h16.5c1.3,0,2.4-1.1,2.4-2.4V36.4c2.6,0.8,5.6,0,7.4-2.3C121.9,31.1,121.5,26.7,118.5,24.2z
	 M90.7,66.2h-9.5V47.3h9.5V66.2z M107.2,66.2H95.4V44.9c0-1.3-1.1-2.4-2.4-2.4H78.9c-1.3,0-2.4,1.1-2.4,2.4v21.3H64.7V33.5L86,16.3
	l21.3,17L107.2,66.2L107.2,66.2z M115.7,31.1c-0.8,1-2.3,1.1-3.3,0.3c0,0,0,0,0,0l-24.9-20c-0.9-0.7-2.1-0.7-3,0L59.6,31.6
	c0,0,0,0,0,0c-0.4,0.4-1,0.5-1.5,0.5c-0.7,0-1.4-0.3-1.8-0.8c-0.4-0.5-0.6-1.1-0.5-1.7c0.1-0.6,0.3-1.2,0.8-1.6L84.4,5.3
	c0,0,0,0,0,0c0.9-0.7,2.2-0.7,3,0c0,0,0,0,0,0l28,22.5C116.4,28.6,116.6,30.1,115.7,31.1z"/>
<path style="&st1;" d="M14.8,73.3c0,1.3-1.1,2.4-2.4,2.4c-1.3,0-2.4-1.1-2.4-2.4c0-1.3,1.1-2.4,2.4-2.4S14.8,72,14.8,73.3z
	 M12.4,80.4c-1.3,0-2.4,1.1-2.4,2.4v14.2c0,1.3,1.1,2.4,2.4,2.4c1.3,0,2.4-1.1,2.4-2.4V82.7C14.8,81.4,13.7,80.4,12.4,80.4z
	 M93,30.7c0,3.9-3.2,7.1-7.1,7.1s-7.1-3.2-7.1-7.1s3.2-7.1,7.1-7.1C89.9,23.6,93,26.8,93,30.7z M88.3,30.7c0-1.3-1.1-2.4-2.4-2.4
	c-1.3,0-2.4,1.1-2.4,2.4s1.1,2.4,2.4,2.4C87.3,33.1,88.3,32,88.3,30.7z"/>
</svg>
