<?xml version="1.0" encoding="utf-8"?>
<!-- Generator: Adobe Illustrator 21.1.0, SVG Export Plug-In . SVG Version: 6.00 Build 0)  -->
<!DOCTYPE svg PUBLIC "-//W3C//DTD SVG 1.1//EN" "http://www.w3.org/Graphics/SVG/1.1/DTD/svg11.dtd" [
	<!ENTITY st0 "fill:#222B43;">
	<!ENTITY st1 "fill:#D71437;">
]>
<svg version="1.1" id="Layer_1" xmlns="http://www.w3.org/2000/svg" xmlns:xlink="http://www.w3.org/1999/xlink" x="0px" y="0px"
	 viewBox="0 0 102.7 102.7" style="enable-background:new 0 0 102.7 102.7;" xml:space="preserve">
<path style="&st0;" d="M32.5,15.4c0,0.9,0.8,1.7,1.7,1.7h59.9c2.8,0,5.1,2.3,5.1,5.1v41.1c0,0.9,0.8,1.7,1.7,1.7s1.7-0.8,1.7-1.7
	V22.2c0-4.7-3.8-8.6-8.6-8.6H34.2C33.3,13.7,32.5,14.5,32.5,15.4z M59.9,99.3H30.8v-77c0-4.7-3.8-8.6-8.6-8.6
	c-4.7,0-8.6,3.8-8.6,8.6v58.2c0,2.8-2.3,5.1-5.1,5.1s-5.1-2.3-5.1-5.1v-77h68.5v5.1c0,0.9,0.8,1.7,1.7,1.7c0.9,0,1.7-0.8,1.7-1.7
	V1.7c0-0.9-0.8-1.7-1.7-1.7H1.7C0.8,0,0,0.8,0,1.7v78.7C0,85.2,3.8,89,8.6,89c4.7,0,8.6-3.8,8.6-8.6V22.2c0-2.8,2.3-5.1,5.1-5.1
	s5.1,2.3,5.1,5.1v63.3h-8.6c-0.9,0-1.7,0.8-1.7,1.7s0.8,1.7,1.7,1.7h8.6v12c0,0.9,0.8,1.7,1.7,1.7h30.8c0.9,0,1.7-0.8,1.7-1.7
	S60.9,99.3,59.9,99.3z M100.7,70.5l-3.4-3.4c-2.6-2.6-6.6-2.6-9.3,0L65.6,89.5c-0.3,0.3-0.5,0.8-0.5,1.2V101c0,0.9,0.8,1.7,1.7,1.7
	H77c0.5,0,0.9-0.2,1.2-0.5l22.4-22.4C103.4,77.1,103.4,73.2,100.7,70.5z M85.8,74.2l2.7,2.7L73.6,91.7L70.9,89L85.8,74.2z
	 M68.5,99.3v-7.8l7.8,7.8H68.5z M78.7,96.9L76,94.2l14.9-14.9l2.7,2.7L78.7,96.9z M98.3,77.4l-2.2,2.2l-7.8-7.8l2.2-2.2
	c1.4-1.4,3.1-1.4,4.4,0l3.4,3.4C99.7,74.3,99.7,76,98.3,77.4z"/>
<path style="&st1;" d="M42.8,82.2h24c0.9,0,1.7-0.8,1.7-1.7s-0.8-1.7-1.7-1.7h-24c-0.9,0-1.7,0.8-1.7,1.7S41.9,82.2,42.8,82.2z
	 M42.8,71.9h17.1c0.9,0,1.7-0.8,1.7-1.7c0-0.9-0.8-1.7-1.7-1.7H42.8c-0.9,0-1.7,0.8-1.7,1.7C41.1,71.1,41.9,71.9,42.8,71.9z
	 M78.7,70.2c0-0.9-0.8-1.7-1.7-1.7H66.8c-0.9,0-1.7,0.8-1.7,1.7c0,0.9,0.8,1.7,1.7,1.7H77C78,71.9,78.7,71.1,78.7,70.2z M82.2,59.9
	V45.2l0.5,0.5c0.3,0.3,0.8,0.5,1.2,0.5s0.9-0.2,1.2-0.5c0.7-0.7,0.7-1.7,0-2.4l-3.4-3.4l0,0L66.3,24.5c-0.7-0.7-1.7-0.7-2.4,0
	L48.4,39.9l0,0L45,43.3c-0.7,0.7-0.7,1.7,0,2.4c0.7,0.7,1.7,0.7,2.4,0l0.5-0.5v14.7c0,0.9,0.8,1.7,1.7,1.7h12c0.9,0,1.7-0.8,1.7-1.7
	v-8.6h3.4v8.6c0,0.9,0.8,1.7,1.7,1.7h12C81.4,61.6,82.2,60.9,82.2,59.9z M78.7,58.2h-8.6v-8.6c0-0.9-0.8-1.7-1.7-1.7h-6.8
	c-0.9,0-1.7,0.8-1.7,1.7v8.6h-8.6V41.8l13.7-13.7l13.7,13.7L78.7,58.2L78.7,58.2z"/>
</svg>
