<?xml version="1.0" encoding="utf-8"?>
<!-- Generator: Adobe Illustrator 21.1.0, SVG Export Plug-In . SVG Version: 6.00 Build 0)  -->
<!DOCTYPE svg PUBLIC "-//W3C//DTD SVG 1.1//EN" "http://www.w3.org/Graphics/SVG/1.1/DTD/svg11.dtd" [
	<!ENTITY st0 "fill:#D71437;">
	<!ENTITY st1 "fill:#222B43;">
]>
<svg version="1.1" id="Layer_1" xmlns="http://www.w3.org/2000/svg" xmlns:xlink="http://www.w3.org/1999/xlink" x="0px" y="0px"
	 viewBox="0 0 104.8 100.4" style="enable-background:new 0 0 104.8 100.4;" xml:space="preserve">
<path style="&st0;" d="M37.7,19.1c-4.8-4.6-12.5-4.6-17.3,0c-4.8,4.6-4.8,12.1,0,16.6c0.4,0.4,0.9,0.6,1.4,0.6
	c0.5,0,1.1-0.2,1.4-0.6l14.4-13.9C38.5,21.1,38.5,19.9,37.7,19.1z M22,31.4c-1.8-3-1.4-7,1.3-9.5c1.6-1.5,3.7-2.3,5.8-2.3
	c1.4,0,2.9,0.4,4.1,1.1L22,31.4z M86,54.8c-0.8-0.8-2.1-0.8-2.9,0c0,0-25.8,24.8-25.9,25c-0.7,0.7-0.8,2,0,2.8
	c3.8,3.7,9,5.7,14.4,5.7s10.6-2,14.4-5.7c3.8-3.7,6-8.6,6-13.9C92,63.4,89.9,58.5,86,54.8z M83.2,79.8c-3.1,3-7.2,4.6-11.5,4.6
	c-3.7,0-7.1-1.2-10-3.3l22.9-22c2.2,2.7,3.4,6.1,3.4,9.6C87.9,72.9,86.2,76.8,83.2,79.8z"/>
<path style="&st1;" d="M104.2,14.8L89.4,0.6c-0.8-0.8-2.1-0.8-2.9,0L1.1,82.8c-0.8,0.8-0.8,2,0,2.8c0,0,14.8,14.2,14.8,14.2
	c0.8,0.7,2.1,0.8,2.9,0l85.4-82.3C105,16.8,105,15.6,104.2,14.8z M17.3,95.7L5.4,84.2l5.5-5.3c0,0,2.2,2.1,2.2,2.1
	c0.8,0.7,2.1,0.8,2.9,0c0.8-0.8,0.8-2,0-2.8l-2.2-2.1l2.9-2.8c0,0,2.2,2.1,2.2,2.1c0.7,0.7,2.1,0.8,2.9,0c0.8-0.8,0.8-2,0-2.8
	l-2.2-2.1l2.9-2.8c0,0,2.2,2.1,2.2,2.1c0.8,0.7,2.1,0.8,2.9,0c0.8-0.8,0.8-2,0-2.8l-2.2-2.1l2.9-2.8c0,0,2.2,2.1,2.2,2.1
	c0.7,0.7,2.1,0.8,2.9,0c0.8-0.8,0.8-2,0-2.8l-2.2-2.1l2.9-2.8c0,0,2.2,2.1,2.2,2.1c0.7,0.7,2.1,0.7,2.9,0c0.8-0.8,0.8-2,0-2.8
	L36.8,54l2.9-2.8c0,0,2.2,2.1,2.2,2.1c0.7,0.7,2.1,0.7,2.9,0c0.8-0.8,0.8-2,0-2.8l-2.2-2.1l2.9-2.8c0,0,2.2,2.1,2.2,2.1
	c0.7,0.7,2.1,0.8,2.9,0c0.8-0.8,0.8-2,0-2.8L48.3,43l2.9-2.8c0,0,2.2,2.1,2.2,2.1c0.8,0.7,2.1,0.7,2.9,0c0.8-0.8,0.8-2,0-2.8
	L54,37.4l2.9-2.8c0,0,2.2,2.1,2.2,2.1c0.7,0.7,2.1,0.8,2.9,0c0.8-0.8,0.8-2,0-2.8l-2.2-2.1l2.9-2.8c0,0,2.2,2.1,2.2,2.1
	c0.7,0.7,2.1,0.8,2.9,0c0.8-0.8,0.8-2,0-2.8l-2.2-2.1l2.9-2.8c0,0,2.2,2.1,2.2,2.1c0.8,0.8,2.1,0.7,2.9,0c0.8-0.8,0.8-2,0-2.8
	l-2.2-2.1l2.9-2.8c0,0,2.2,2.1,2.2,2.1c0.7,0.7,2.1,0.8,2.9,0c0.8-0.8,0.8-2,0-2.8L77,15.3l2.9-2.8c0,0,2.2,2.1,2.2,2.1
	c0.8,0.8,2.1,0.8,2.9,0c0.8-0.8,0.8-2,0-2.8l-2.2-2.1l5.2-5l11.9,11.5L17.3,95.7z M25,83l-3.3,3.2c-0.8,0.8-2.1,0.7-2.9,0
	c-0.8-0.8-0.8-2,0-2.8l3.3-3.2c0.8-0.8,2.1-0.8,2.9,0C25.8,81,25.8,82.2,25,83z M61.2,14.2L52,5.3c-0.8-0.8-2.1-0.8-2.9,0l-1.4,1.4
	C42.5,2.4,36,0,29,0C21.4,0,14.2,2.9,8.9,8S0.5,20.1,0.5,27.4c0,6.7,2.5,13,6.9,18l-1.4,1.4c-0.8,0.8-0.8,2,0,2.8
	c0,0,9.2,8.8,9.2,8.9c0.8,0.8,2.1,0.7,2.9,0L61.2,17C62,16.2,62,15,61.2,14.2z M16.7,54.3l-6.3-6.1l1.4-1.3c0.4-0.4,0.6-0.9,0.6-1.4
	s-0.2-1-0.6-1.4c-4.6-4.4-7.1-10.3-7.1-16.6c0-6.3,2.5-12.2,7.1-16.6C16.4,6.4,22.5,3.9,29,3.9c6.5,0,12.7,2.4,17.3,6.9
	c0.4,0.4,0.9,0.6,1.4,0.6s1.1-0.2,1.4-0.6l1.4-1.3l6.3,6.1L16.7,54.3z M103.5,25.7c-0.7-0.3-1.6-0.2-2.2,0.4c0,0-73.5,70.8-73.7,71
	c-1.2,1.2-0.4,3.3,1.4,3.3h73.7c1.1,0,2-0.9,2-2c0,0,0-70.8,0-71C104.8,26.6,104.2,26,103.5,25.7z M100.7,96.5H34l66.7-64.3V96.5z
	 M96.7,89.2v1.4c0,1.1-1,2-2,2c0,0-10,0-10,0c-1.1,0-2-0.9-2-2s0.9-2,2-2h8c0.3-0.8,1-1.4,1.9-1.4C95.7,87.3,96.7,88.2,96.7,89.2z
	 M96.7,81.4c0,1.1-0.9,2-2,2s-2-0.9-2-2c0-1.1,0.9-2,2-2S96.7,80.3,96.7,81.4z M13.8,39.6c0,1.1,0.9,2,2,2s2-0.9,2-2
	c0-1.1-0.9-2-2-2S13.8,38.5,13.8,39.6z M9.5,32.8c0,1.1,0.9,2,2,2s2-0.9,2-2c0-1.1-0.9-2-2-2S9.5,31.7,9.5,32.8z M8.9,25.1
	c0,1.1,0.9,2,2,2s2-0.9,2-2c0-1.1-0.9-2-2-2S8.9,24,8.9,25.1z M11.7,17.8c0,1.1,0.9,2,2,2s2-0.9,2-2c0-1.1-0.9-2-2-2
	S11.7,16.8,11.7,17.8z M17.4,12.4c0,1.1,0.9,2,2,2s2-0.9,2-2s-0.9-2-2-2S17.4,11.3,17.4,12.4z M25.2,9.8c0,1.1,0.9,2,2,2s2-0.9,2-2
	s-0.9-2-2-2S25.2,8.7,25.2,9.8z M33.1,10.8c0,1.1,0.9,2,2,2c1.1,0,2-0.9,2-2s-0.9-2-2-2C34,8.8,33.1,9.7,33.1,10.8z M40,14.9
	c0,1.1,0.9,2,2,2c1.1,0,2-0.9,2-2s-0.9-2-2-2C40.9,12.9,40,13.8,40,14.9z"/>
</svg>
