<?xml version="1.0" encoding="utf-8"?>
<!-- Generator: Adobe Illustrator 21.1.0, SVG Export Plug-In . SVG Version: 6.00 Build 0)  -->
<!DOCTYPE svg PUBLIC "-//W3C//DTD SVG 1.1//EN" "http://www.w3.org/Graphics/SVG/1.1/DTD/svg11.dtd" [
	<!ENTITY st0 "fill:#D71437;">
	<!ENTITY st1 "fill:#222B43;">
]>
<svg version="1.1" id="Layer_1" xmlns="http://www.w3.org/2000/svg" xmlns:xlink="http://www.w3.org/1999/xlink" x="0px" y="0px"
	 viewBox="0 0 95.8 96.2" style="enable-background:new 0 0 95.8 96.2;" xml:space="preserve">
<path style="&st0;" d="M60.6,43.5c0,0.9,0.7,1.6,1.6,1.6h16c0.9,0,1.6-0.7,1.6-1.6s-0.7-1.6-1.6-1.6h-16
	C61.4,41.9,60.6,42.7,60.6,43.5z M62.3,35.5h9.6c0.9,0,1.6-0.7,1.6-1.6c0-0.9-0.7-1.6-1.6-1.6h-9.6c-0.9,0-1.6,0.7-1.6,1.6
	C60.7,34.8,61.4,35.5,62.3,35.5z M75,51.5H62.2c-0.9,0-1.6,0.7-1.6,1.6c0,0.9,0.7,1.6,1.6,1.6H75c0.9,0,1.6-0.7,1.6-1.6
	C76.6,52.2,75.9,51.5,75,51.5z M34.6,43.1l0.5-0.5v10.5c0,0.9,0.7,1.6,1.6,1.6h16c0.9,0,1.6-0.7,1.6-1.6V42.6l0.5,0.5
	c0.3,0.3,0.7,0.5,1.1,0.5c0.4,0,0.8-0.1,1.1-0.5c0.6-0.6,0.6-1.6,0-2.3L45.8,29.6c-0.6-0.6-1.6-0.6-2.3,0L32.4,40.8
	c-0.6,0.6-0.6,1.6,0,2.3C33,43.7,34,43.7,34.6,43.1z M44.7,33l6.6,6.6c-0.1,0.2-0.2,0.5-0.2,0.7v11.2h-4.8v-4.8
	c0-0.9-0.7-1.6-1.6-1.6c-0.9,0-1.6,0.7-1.6,1.6v4.8h-4.8V40.3c0-0.3-0.1-0.5-0.2-0.7L44.7,33z"/>
<path style="&st1;" d="M39.9,22.8h31.9c0.9,0,1.6-0.7,1.6-1.6c0-0.9-0.7-1.6-1.6-1.6H39.9c-0.9,0-1.6,0.7-1.6,1.6
	C38.3,22.1,39,22.8,39.9,22.8z M49.5,93h-16c-0.9,0-1.6,0.7-1.6,1.6c0,0.9,0.7,1.6,1.6,1.6h16c0.9,0,1.6-0.7,1.6-1.6
	C51.1,93.7,50.4,93,49.5,93z M62.3,93h-3.2c-0.9,0-1.6,0.7-1.6,1.6c0,0.9,0.7,1.6,1.6,1.6h3.2c0.9,0,1.6-0.7,1.6-1.6
	C63.8,93.7,63.1,93,62.3,93z M94.2,93H68.6c-0.9,0-1.6,0.7-1.6,1.6c0,0.9,0.7,1.6,1.6,1.6h25.5c0.9,0,1.6-0.7,1.6-1.6
	C95.8,93.7,95.1,93,94.2,93z M30.3,19.6c-4.4,0-8,3.6-8,8v31.9c0,4.4,3.6,8,8,8h51.1c4.4,0,8-3.6,8-8V27.6c0-4.4-3.6-8-8-8h-1.6
	v-6.4h14.4c0.9,0,1.6-0.7,1.6-1.6S95.1,10,94.2,10H16V5.2c0-2.6-2.2-4.8-4.8-4.8S6.4,2.6,6.4,5.2V93H1.6C0.7,93,0,93.7,0,94.6
	c0,0.9,0.7,1.6,1.6,1.6h22.3c0.9,0,1.6-0.7,1.6-1.6c0-0.9-0.7-1.6-1.6-1.6h-8V18c0-0.9-0.7-1.6-1.6-1.6s-1.6,0.7-1.6,1.6V93H9.6V5.2
	c0-0.9,0.7-1.6,1.6-1.6s1.6,0.7,1.6,1.6v6.4c0,0.9,0.7,1.6,1.6,1.6h17.6v6.4L30.3,19.6L30.3,19.6z M33.5,22.8c0.9,0,1.6-0.7,1.6-1.6
	v-8h41.5v8c0,0.9,0.7,1.6,1.6,1.6h3.2c2.6,0,4.8,2.2,4.8,4.8v31.9c0,2.6-2.2,4.8-4.8,4.8H30.3c-2.6,0-4.8-2.2-4.8-4.8V27.6
	c0-2.6,2.2-4.8,4.8-4.8C30.3,22.8,33.5,22.8,33.5,22.8z"/>
</svg>
