<?xml version="1.0" encoding="utf-8"?>
<!-- Generator: Adobe Illustrator 21.1.0, SVG Export Plug-In . SVG Version: 6.00 Build 0)  -->
<!DOCTYPE svg PUBLIC "-//W3C//DTD SVG 1.1//EN" "http://www.w3.org/Graphics/SVG/1.1/DTD/svg11.dtd" [
	<!ENTITY st0 "fill:#D71437;">
	<!ENTITY st1 "fill:#222B43;">
]>
<svg version="1.1" id="Layer_1" xmlns="http://www.w3.org/2000/svg" xmlns:xlink="http://www.w3.org/1999/xlink" x="0px" y="0px"
	 viewBox="0 0 83.6 107" style="enable-background:new 0 0 83.6 107;" xml:space="preserve">
<path style="&st0;" d="M62.7,95.9c0,1.2-0.9,2.1-2.1,2.1c-1.2,0-2.1-0.9-2.1-2.1c0-1.2,0.9-2.1,2.1-2.1
	C61.8,93.8,62.7,94.8,62.7,95.9z"/>
<path style="&st1;" d="M80.3,75.2c-2.1-3.1-5.1-5.5-8.6-6.9l-15.3-6.1c4-3.9,6.3-9.3,6.3-15c0-2.3-0.4-4.4-1-6.5
	c0.6-0.4,1-1.1,1-1.8v-6.4l3.6-7.3l3.6-1.8c0.7-0.4,1.2-1.1,1.2-1.9v-6.3c0-0.9-0.6-1.7-1.4-2l-5.9-2L49.3,0.4C49,0.1,48.5,0,48.1,0
	H35.5c-0.5,0-0.9,0.1-1.3,0.4L19.9,11.3l-5.9,2c-0.9,0.3-1.4,1.1-1.4,2v6.3c0,0.8,0.4,1.5,1.2,1.9l3.6,1.8l3.6,7.3v6.4
	c0,0.8,0.4,1.4,1,1.8c-0.7,2.1-1,4.3-1,6.5c0,5.7,2.3,11.1,6.3,15l-15.3,6.1c-3.5,1.4-6.5,3.8-8.6,6.9C1.1,78.3,0,82,0,85.8v19.1
	c0,1.2,0.9,2.1,2.1,2.1h37.6c0,0,0,0,0,0c0,0,0,0,0,0h4.2c0,0,0,0,0,0c0,0,0,0,0,0h37.6c1.2,0,2.1-0.9,2.1-2.1V85.8
	C83.6,82,82.5,78.3,80.3,75.2z M62.9,69.3L50.2,90.5v-6.3c0-1.3-0.4-2.7-1.3-3.8l-3.7-4.9c1.7-1.1,2.9-3.1,2.9-5.3v-3.1
	c1.6-0.5,3-1.2,4.4-2L62.9,69.3z M20.7,22.7c-0.2-0.4-0.5-0.7-0.9-0.9l-3-1.5v-3.5l4.8-1.6c0.2-0.1,0.4-0.2,0.6-0.3L36.2,4.2h11.1
	l14.1,10.7c0.2,0.1,0.4,0.2,0.6,0.3l4.8,1.6v3.5l-3,1.5c-0.4,0.2-0.7,0.5-0.9,0.9l-3.6,7.2h-35L20.7,22.7z M25.1,34.1h33.4v3.3
	l-5.5,1.8c-3.6,1.2-7.4,1.8-11.3,1.8c-1.9,0-3.9-0.2-5.7-0.5c-1.9-0.3-3.8-0.8-5.6-1.4l-4-1.3c-0.2-0.2-0.4-0.4-0.7-0.5
	c-0.2-0.1-0.4-0.2-0.6-0.2V34.1z M25.1,47.2c0-1.8,0.3-3.5,0.8-5.2l3.2,1.1c2,0.7,4.1,1.2,6.2,1.5c2.1,0.3,4.3,0.5,6.4,0.5
	c4.3,0,8.5-0.7,12.6-2l3.3-1.1c0.5,1.7,0.8,3.4,0.8,5.2c0,5.5-2.7,10.7-7.3,13.8c0,0-0.1,0-0.1,0.1c-1.7,1.1-3.6,2-5.6,2.4
	c-2.4,0.5-5,0.5-7.4,0c-2-0.5-3.9-1.3-5.6-2.4C27.8,58,25.1,52.8,25.1,47.2z M43.9,68v2.2c0,1.2-0.9,2.1-2.1,2.1
	c-0.6,0-1.1-0.2-1.5-0.6c-0.4-0.4-0.6-0.9-0.6-1.5V68c0.7,0.1,1.4,0.1,2.1,0.1C42.5,68.1,43.2,68.1,43.9,68z M31.1,65.2
	c1.4,0.8,2.9,1.5,4.4,2v3.1c0,1.7,0.7,3.2,1.8,4.4c0.3,0.3,0.7,0.6,1,0.8l-3.7,4.9c-0.8,1.1-1.3,2.4-1.3,3.8v6.3L20.7,69.3
	L31.1,65.2z M4.2,102.8V85.8c0-6,3.6-11.4,9.2-13.6l3.3-1.3l16.9,27.9l2.4,4H4.2z M46,97.4l-3.3,5.4h-1.8l-3.3-5.4V84.2
	c0-0.4,0.1-0.9,0.4-1.3l3.8-5l3.8,5c0.3,0.4,0.4,0.8,0.4,1.3L46,97.4L46,97.4z M47.6,102.8l19.3-32l3.3,1.3
	c5.6,2.2,9.2,7.6,9.2,13.6v17.1H47.6z"/>
<path style="&st0;" d="M41.8,9c-4.6,0-8.4,3.8-8.4,8.4s3.8,8.4,8.4,8.4s8.4-3.8,8.4-8.4S46.4,9,41.8,9z M41.8,21.5
	c-2.3,0-4.2-1.9-4.2-4.2s1.9-4.2,4.2-4.2c2.3,0,4.2,1.9,4.2,4.2S44.1,21.5,41.8,21.5z"/>
<path style="&st0;" d="M75.2,95.9c0,1.2-0.9,2.1-2.1,2.1H69c-1.2,0-2.1-0.9-2.1-2.1s0.9-2.1,2.1-2.1h4.2
	C74.3,93.8,75.2,94.8,75.2,95.9z"/>
</svg>
