<?xml version="1.0" encoding="utf-8"?>
<!-- Generator: Adobe Illustrator 21.1.0, SVG Export Plug-In . SVG Version: 6.00 Build 0)  -->
<!DOCTYPE svg PUBLIC "-//W3C//DTD SVG 1.1//EN" "http://www.w3.org/Graphics/SVG/1.1/DTD/svg11.dtd" [
	<!ENTITY st0 "fill:#222B43;">
	<!ENTITY st1 "fill:#D71437;">
]>
<svg version="1.1" id="Layer_1" xmlns="http://www.w3.org/2000/svg" xmlns:xlink="http://www.w3.org/1999/xlink" x="0px" y="0px"
	 viewBox="0 0 108.5 107.9" style="enable-background:new 0 0 108.5 107.9;" xml:space="preserve">
<path style="&st0;" d="M106.4,103.7H78.5l-7.3-18.8c2.6-1.2,5-2.6,7.2-4.3c0.3,0.8,0.8,1.5,1.4,2.2c2.5,2.5,6.5,2.5,8.9,0
	c2.5-2.5,2.5-6.5,0-8.9c-0.6-0.6-1.4-1.1-2.2-1.4c4-5.3,6.6-11.5,7.5-18.1c0.8,0.3,1.6,0.5,2.5,0.5c3.5,0,6.3-2.8,6.3-6.3
	s-2.8-6.3-6.3-6.3c-0.9,0-1.7,0.2-2.5,0.5c-1-6.6-3.5-12.8-7.5-18.1c0.8-0.3,1.5-0.8,2.2-1.4c2.5-2.5,2.5-6.5,0-8.9
	c-2.5-2.5-6.5-2.5-8.9,0c-0.6,0.6-1.1,1.4-1.4,2.2c-5.3-4-11.5-6.6-18.1-7.5c0.3-0.8,0.5-1.6,0.5-2.5C60.9,2.8,58,0,54.5,0
	c-3.5,0-6.3,2.8-6.3,6.3c0,0.9,0.2,1.7,0.5,2.5c-6.6,1-12.8,3.5-18.1,7.5c-0.3-0.8-0.8-1.5-1.4-2.2c-2.5-2.5-6.5-2.5-8.9,0
	c-2.5,2.5-2.5,6.5,0,8.9c0.6,0.6,1.4,1.1,2.2,1.4c-4,5.3-6.6,11.5-7.5,18.1c-0.8-0.3-1.6-0.5-2.5-0.5c-3.5,0-6.3,2.8-6.3,6.3
	s2.8,6.3,6.3,6.3c0.9,0,1.7-0.2,2.5-0.5c1,6.6,3.5,12.8,7.5,18.1c-0.8,0.3-1.5,0.8-2.2,1.4c-2.5,2.5-2.5,6.5,0,8.9
	c2.5,2.5,6.5,2.5,8.9,0c0.6-0.6,1.1-1.4,1.4-2.2c2.3,1.7,4.7,3.1,7.2,4.3l-7.3,18.8H2.7c-1.2,0-2.1,0.9-2.1,2.1s0.9,2.1,2.1,2.1H32
	c0,0,0,0,0,0c0,0,0,0,0,0c1.4,0,71.1,0,74.4,0c1.2,0,2.1-0.9,2.1-2.1S107.5,103.7,106.4,103.7z M96.7,46.4c1.2,0,2.1,0.9,2.1,2.1
	s-0.9,2.1-2.1,2.1s-2.1-0.9-2.1-2.1S95.5,46.4,96.7,46.4z M12.4,50.6c-1.2,0-2.1-0.9-2.1-2.1s0.9-2.1,2.1-2.1s2.1,0.9,2.1,2.1
	S13.6,50.6,12.4,50.6z M85.8,79.8c-0.8,0.8-2.2,0.8-3,0c-0.8-0.8-0.8-2.2,0-3c0.8-0.8,2.2-0.8,3,0C86.7,77.6,86.7,78.9,85.8,79.8z
	 M82.9,17.2c0.8-0.8,2.2-0.8,3,0c0.8,0.8,0.8,2.2,0,3c-0.8,0.8-2.2,0.8-3,0C82,19.3,82,18,82.9,17.2z M54.5,4.2
	c1.2,0,2.1,0.9,2.1,2.1s-0.9,2.1-2.1,2.1s-2.1-0.9-2.1-2.1S53.4,4.2,54.5,4.2z M23.2,17.2c0.8-0.8,2.2-0.8,3,0c0.8,0.8,0.8,2.2,0,3
	c-0.8,0.8-2.2,0.8-3,0C22.4,19.3,22.4,18,23.2,17.2z M26.2,79.8c-0.8,0.8-2.2,0.8-3,0c-0.8-0.8-0.8-2.2,0-3c0.8-0.8,2.2-0.8,3,0
	C27,77.6,27,78.9,26.2,79.8z M29.2,73.8C22.4,67,18.7,58,18.7,48.5c0-9.6,3.7-18.6,10.5-25.3c0,0,0,0,0,0c0,0,0,0,0,0
	C36,16.4,45,12.6,54.5,12.6c9.6,0,18.6,3.7,25.3,10.5c6.8,6.8,10.5,15.8,10.5,25.3c0,9.6-3.7,18.6-10.5,25.3c0,0,0,0,0,0
	c0,0,0,0,0,0c-3,3-6.4,5.4-10.2,7.1L68.2,77c3.2-1.5,6.1-3.6,8.6-6.1c0,0,0.1-0.1,0.1-0.1c0,0,0.1-0.1,0.1-0.1
	c5.9-6,9.2-13.9,9.2-22.2c0-8.4-3.3-16.4-9.3-22.3c-6-6-13.9-9.3-22.3-9.3c-8.4,0-16.3,3.3-22.2,9.2c0,0-0.1,0.1-0.1,0.1
	c0,0-0.1,0.1-0.1,0.1c-5.9,6-9.2,13.9-9.2,22.2c0,8.4,3.3,16.4,9.3,22.3c2.6,2.6,5.5,4.6,8.7,6.2l-1.5,3.9
	C35.6,79.2,32.2,76.8,29.2,73.8z M54.5,84.3c-3.9,0-7.6-0.6-11.2-1.8l1.5-3.9c3.1,1,6.4,1.5,9.7,1.5c3.3,0,6.6-0.5,9.7-1.5l1.5,3.9
	C62.2,83.7,58.4,84.3,54.5,84.3z M56.6,90.6c0,1.2-0.9,2.1-2.1,2.1c-1.2,0-2.1-0.9-2.1-2.1s0.9-2.1,2.1-2.1
	C55.7,88.5,56.6,89.5,56.6,90.6z M69.1,46.4c-0.3-2.4-1.3-4.7-2.8-6.7l9-9c3.8,4.4,6.1,9.9,6.5,15.7H69.1z M81.9,50.6
	c-0.4,5.8-2.7,11.3-6.5,15.7l-9-9c1.5-2,2.4-4.3,2.8-6.7L81.9,50.6L81.9,50.6z M63.4,36.7c-2-1.5-4.3-2.4-6.7-2.8V21.2
	c5.8,0.4,11.3,2.7,15.7,6.5L63.4,36.7z M65.1,48.5c0,5.8-4.7,10.5-10.5,10.5C48.8,59,44,54.3,44,48.5c0-5.8,4.7-10.5,10.5-10.5
	C60.4,37.9,65.1,42.7,65.1,48.5z M62.7,74.6c-2,0.6-4,1-6.1,1.2V63.1h0c0.5-0.1,1-0.2,1.5-0.3L62.7,74.6z M52.4,63.1v12.7
	c-2.1-0.2-4.1-0.5-6.1-1.2L51,62.8C51.4,62.9,51.9,63,52.4,63.1z M52.4,33.9c-2.4,0.3-4.7,1.3-6.7,2.8l-9-9
	c4.4-3.8,9.9-6.1,15.7-6.5V33.9z M42.7,39.6c-1.5,2-2.4,4.3-2.8,6.7H27.2c0.4-5.8,2.7-11.3,6.5-15.7L42.7,39.6z M39.9,50.6
	c0.3,2.4,1.3,4.7,2.8,6.7l-9,9c-3.8-4.4-6.1-9.9-6.5-15.7H39.9z M45.7,60.3c0.4,0.3,0.9,0.6,1.4,0.9l-4.6,11.9c-2.1-1-4-2.3-5.7-3.8
	L45.7,60.3z M62,61.2c0.5-0.3,0.9-0.6,1.4-0.9l9,9c-1.7,1.5-3.7,2.8-5.7,3.8L62,61.2z M35.1,103.7l6.7-17.3c2.3,0.8,4.6,1.3,7,1.7
	c-0.3,0.8-0.5,1.6-0.5,2.5c0,3.5,2.8,6.3,6.3,6.3c3.5,0,6.3-2.8,6.3-6.3c0-0.9-0.2-1.8-0.5-2.5c2.4-0.3,4.7-0.9,7-1.7l6.7,17.3H35.1
	z"/>
<path style="&st1;" d="M54.5,42.1c-3.5,0-6.3,2.8-6.3,6.3c0,3.5,2.8,6.3,6.3,6.3s6.3-2.8,6.3-6.3C60.9,45,58,42.1,54.5,42.1z
	 M54.5,50.6c-1.2,0-2.1-0.9-2.1-2.1s0.9-2.1,2.1-2.1s2.1,0.9,2.1,2.1S55.7,50.6,54.5,50.6z"/>
</svg>
