<?xml version="1.0" encoding="utf-8"?><svg xmlns="http://www.w3.org/2000/svg" xmlns:xlink="http://www.w3.org/1999/xlink"><symbol viewBox="0 0 477.2 477.2" id="arrow" xmlns="http://www.w3.org/2000/svg"><path d="M248.1 360.7l225.1-225.1c5.3-5.3 5.3-13.8 0-19.1-5.3-5.3-13.8-5.3-19.1 0L238.6 332 23.1 116.5c-5.3-5.3-13.8-5.3-19.1 0-2.6 2.6-4 6.1-4 9.5 0 3.4 1.3 6.9 4 9.5l225.1 225.1c5.2 5.3 13.8 5.3 19 .1z"/></symbol><symbol viewBox="0 0 479.619 479.619" id="bell" xmlns="http://www.w3.org/2000/svg"><path d="M475.855 336.376a51.19 51.19 0 0 0-2.017-8.275c-8.621-23.991-33.203-38.346-58.334-34.065-8.313 1.309-16.114-4.368-17.425-12.681l-12.646-80.913c-10.379-68.459-59.835-124.522-126.464-143.36C252.909 19.994 217.931-5.16 180.842.9c-36.598 5.98-61.669 40.163-56.376 76.867-57.432 36.346-87.748 103.365-77.124 170.496l13.551 86.118c1.241 8.297-4.405 16.054-12.68 17.425-25.234 3.641-44.226 24.849-45.073 50.33-.292 28.275 22.393 51.434 50.668 51.726a52.504 52.504 0 0 0 8.502-.611l52.531-8.26c18.274 32.622 59.533 44.254 92.155 25.98a67.703 67.703 0 0 0 33.285-45.709L433.22 394.9c27.934-4.387 47.023-30.589 42.635-58.524zM186.777 36.313a35.849 35.849 0 0 1 5.376-.427 34.304 34.304 0 0 1 28.416 15.36h-.819a162.674 162.674 0 0 0-19.081.546 173.35 173.35 0 0 0-19.883 3.072c-1.417.29-2.816.7-4.216 1.041-5.376 1.263-10.65 2.748-15.821 4.506-.512.154-1.041.239-1.553.427a34.136 34.136 0 0 1 27.581-24.525zm-12.971 409.173a33.664 33.664 0 0 1-20.087-6.622l47.787-7.492a34.136 34.136 0 0 1-27.7 14.114zm266.018-92.279a17.066 17.066 0 0 1-11.947 7.987L222.31 393.518l-99.891 15.718-65.365 10.24a16.862 16.862 0 0 1-13.79-3.925 17.064 17.064 0 0 1-5.99-13.21 18.518 18.518 0 0 1 16.247-16.828c26.88-4.309 45.234-29.518 41.079-56.422l-13.534-86.118c-8.864-56.814 18.723-113.111 69.052-140.919.296-.099.586-.213.87-.341a136.533 136.533 0 0 1 52.804-15.94c5.607-.493 11.24-.601 16.862-.324l2.799.137a134.21 134.21 0 0 1 17.323 2.185h.546c57.748 12.493 101.701 59.479 110.319 117.931l12.732 80.913c4.232 26.931 29.49 45.336 56.422 41.114a18.518 18.518 0 0 1 20.617 10.991 17.064 17.064 0 0 1-1.588 14.487z"/></symbol><symbol viewBox="0 0 512.001 512.001" id="boy" xmlns="http://www.w3.org/2000/svg"><path d="M459.289 246.548c-1.45 0-2.882.075-4.302.19-11.059-63.377-51.75-116.7-107.23-145.108 25.88-12.697 43.743-39.314 43.743-70.033 0-8.284-6.716-15-15-15s-15 6.716-15 15c0 19.647-11.878 36.563-28.827 43.969 8.587-12.526 13.624-27.668 13.624-43.969 0-8.284-6.716-15-15-15s-15 6.716-15 15c0 26.447-21.516 47.963-47.963 47.963H256c-99.51 0-182.437 72.331-198.986 167.177a53.25 53.25 0 0 0-4.302-.19C23.646 246.548 0 270.194 0 299.259s23.646 52.711 52.711 52.711c.729 0 1.452-.026 2.174-.055 7.578 65.617 63.469 116.733 131.084 116.733h.007c19.523 17.301 44.379 26.755 70.688 26.755 26.31 0 51.171-9.457 70.696-26.762 67.016-.666 122.228-51.54 129.757-116.726.722.03 1.444.055 2.173.055 29.065 0 52.711-23.646 52.711-52.711s-23.647-52.711-52.712-52.711zM54 281.561v40.37a22.94 22.94 0 0 1-1.289.039C40.188 321.97 30 311.781 30 299.259c0-12.522 10.188-22.711 22.711-22.711.454 0 .904.017 1.352.044a205.23 205.23 0 0 0-.063 4.969zm374 55.119c0 56.226-45.743 101.968-101.968 101.968a104.427 104.427 0 0 1-3.953-.085 15.002 15.002 0 0 0-11.169 4.379c-14.493 14.483-33.758 22.46-54.247 22.46-20.51 0-39.789-7.991-54.287-22.501a15 15 0 0 0-11.342-4.379c-1.708.084-3.413.126-5.065.126C129.743 438.647 84 392.905 84 336.68v-55.119c0-94.841 77.159-172 172-172s172 77.159 172 172v55.119zm31.289-14.71c-.433 0-.862-.015-1.289-.039v-40.37c0-1.661-.023-3.317-.063-4.969.448-.026.898-.044 1.352-.044 12.523 0 22.711 10.188 22.711 22.711s-10.188 22.711-22.711 22.711z"/><path d="M338.364 349.671c-5.027-6.584-14.44-7.846-21.026-2.82l-10.864 8.294C292.061 366.149 274.135 372.21 256 372.21s-36.061-6.061-50.475-17.065l-10.864-8.294c-6.585-5.027-15.999-3.764-21.025 2.82-5.027 6.585-3.765 15.998 2.82 21.025l10.864 8.294c19.613 14.974 44.004 23.22 68.68 23.22 24.676 0 49.067-8.246 68.68-23.22l10.864-8.294c6.584-5.027 7.847-14.44 2.82-21.025z"/><circle cx="181.76" cy="283.39" r="17.838"/><circle cx="330.24" cy="283.39" r="17.838"/></symbol><symbol viewBox="0 0 512.001 512.001" id="buildings" xmlns="http://www.w3.org/2000/svg"><path d="M166.285 426.059H447.93a7.5 7.5 0 0 0 7.5-7.5 7.5 7.5 0 0 0-7.5-7.5H166.285a7.5 7.5 0 0 0-7.5 7.5 7.5 7.5 0 0 0 7.5 7.5zm0-251.556h24.679a7.5 7.5 0 0 0 7.5-7.5 7.5 7.5 0 0 0-7.5-7.5h-24.679a7.5 7.5 0 0 0-7.5 7.5 7.5 7.5 0 0 0 7.5 7.5zm0 62.889h24.679a7.5 7.5 0 0 0 7.5-7.5 7.5 7.5 0 0 0-7.5-7.5h-24.679a7.5 7.5 0 0 0-7.5 7.5 7.5 7.5 0 0 0 7.5 7.5zm0 62.89h24.679a7.5 7.5 0 0 0 7.5-7.5 7.5 7.5 0 0 0-7.5-7.5h-24.679a7.5 7.5 0 1 0 0 15zm0 62.889h24.679a7.5 7.5 0 0 0 7.5-7.5 7.5 7.5 0 0 0-7.5-7.5h-24.679a7.5 7.5 0 0 0 0 15zm88.749 0h156.922c7.786 0 14.12-6.334 14.12-14.121V231.592h9.371a9.65 9.65 0 0 0 9.25-6.803 9.659 9.659 0 0 0-3.732-10.866L339.012 143.28c-3.256-2.257-7.776-2.257-11.034 0l-101.953 70.643a9.657 9.657 0 0 0-3.73 10.867 9.648 9.648 0 0 0 9.249 6.801h9.371V349.05c-.001 7.787 6.333 14.121 14.119 14.121zm96.759-15h-36.596v-63.406h36.596v63.406zm59.284 0h-44.284v-64.62c0-7.601-6.184-13.785-13.785-13.785h-39.025c-7.602 0-13.785 6.184-13.785 13.785v64.621h-44.283v-116.58h155.162v116.579zm-77.582-190.465l84.984 58.886H248.511l84.984-58.886z"/><path d="M504.501 137.868a7.5 7.5 0 0 0 7.5-7.5v-27.384c0-14.943-12.135-27.1-27.05-27.1H118.689v-.334c0-32.795-26.621-59.477-59.344-59.477S.001 42.755.001 75.55v234.623c0 4.142 3.357 7.5 7.5 7.5s7.5-3.358 7.5-7.5V75.55c0-24.524 19.893-44.477 44.344-44.477s44.344 19.952 44.344 44.477v321.378a61.164 61.164 0 0 0-3.242-3.369c-10.331-9.946-23.547-15.68-37.674-16.474-.291-.017-.586-.02-.878-.032a60.89 60.89 0 0 0-2.224-.061c-.109-.001-.216-.009-.326-.009-.316 0-.627.021-.943.026-.454.007-.906.001-1.362.018-.183.007-.362.025-.545.034-.402.019-.801.048-1.202.075a58.31 58.31 0 0 0-1.88.155 57.532 57.532 0 0 0-2.984.379c-.455.069-.909.14-1.36.219-.497.088-.991.187-1.484.287-.52.105-1.039.209-1.554.328-.344.08-.683.171-1.025.256-11.777 2.941-22.181 9.396-30.006 18.214V340.59c0-4.142-3.357-7.5-7.5-7.5s-7.5 3.358-7.5 7.5v95.865c0 .093.01.183.014.275.061 15.402 5.904 29.884 16.626 41.019 11.287 11.723 26.453 18.179 42.704 18.179h425.607c14.915 0 27.05-12.157 27.05-27.1v-307.22c0-4.142-3.357-7.5-7.5-7.5s-7.5 3.358-7.5 7.5v307.219c0 6.672-5.405 12.1-12.05 12.1H59.345c-12.137 0-23.465-4.824-31.899-13.583-8.332-8.654-12.722-20.02-12.415-32.056.007-.254.008-.509.019-.763.018-.436.05-.869.081-1.302.022-.307.042-.616.07-.921.038-.414.088-.825.137-1.236.037-.309.074-.618.118-.925.06-.423.13-.844.202-1.264.048-.278.096-.557.149-.834.087-.454.183-.905.284-1.354.051-.226.102-.452.156-.677a43.994 43.994 0 0 1 .521-1.96c.162-.556.333-1.109.516-1.656l.078-.231c4.214-12.365 13.747-22.331 25.817-27.11l.175-.069c.537-.21 1.081-.407 1.628-.596l.463-.158a43.265 43.265 0 0 1 2.143-.652 42.827 42.827 0 0 1 2.188-.545 47.11 47.11 0 0 1 1.069-.226c.38-.074.762-.141 1.145-.206.315-.053.631-.106.948-.153.422-.061.846-.113 1.271-.162.295-.034.59-.071.887-.099.434-.042.871-.071 1.308-.1.304-.02.606-.043.912-.057.401-.018.804-.023 1.208-.031.358-.006.717-.016 1.074-.015.44.003.877.018 1.313.033.302.01.604.017.905.033.542.03 1.081.074 1.618.124.181.016.364.029.544.047a43.487 43.487 0 0 1 2.115.271c19.779 3.042 35.294 19.238 37.36 39.374.153 1.514.231 3.044.231 4.589 0 .057.011.111.013.167a7.511 7.511 0 0 0 .284 1.882c.02.069.035.14.057.209a7.303 7.303 0 0 0 .457 1.107c.115.228.24.45.377.664.043.067.083.135.127.201a7.503 7.503 0 0 0 .746.915 7.603 7.603 0 0 0 .757.701 7.44 7.44 0 0 0 .933.636c.277.161.562.309.86.434.008.003.015.008.023.012.028.012.057.017.085.028.275.11.559.201.85.279.081.021.161.043.242.062.311.072.627.13.952.162.05.005.099.004.149.007.196.016.393.03.594.03.081 0 .159-.01.239-.012a7.62 7.62 0 0 0 1.182-.126c.017-.003.035-.004.052-.008a7.514 7.514 0 0 0 1.14-.331c.294-.109.581-.233.856-.377l.061-.029c.292-.156.569-.334.836-.526.06-.043.119-.088.178-.133.265-.203.522-.416.757-.652l.003-.003c.018-.018.033-.038.051-.057.153-.156.301-.317.44-.486.045-.055.083-.113.126-.169.107-.138.214-.275.311-.42.034-.051.062-.105.095-.156.099-.156.197-.312.284-.475.019-.036.035-.074.053-.111.094-.181.183-.365.262-.554.01-.024.017-.049.027-.074.081-.202.157-.406.221-.616l.021-.081c.06-.206.115-.415.158-.628.013-.063.018-.128.029-.192.031-.177.062-.354.08-.536.025-.248.038-.498.038-.749V90.883h366.261c6.645 0 12.05 5.428 12.05 12.1v27.384a7.5 7.5 0 0 0 7.5 7.501z"/></symbol><symbol viewBox="0 0 97.16 97.16" id="clock" xmlns="http://www.w3.org/2000/svg"><path d="M48.58 0C21.793 0 0 21.793 0 48.58s21.793 48.58 48.58 48.58 48.58-21.793 48.58-48.58S75.367 0 48.58 0zm0 86.823c-21.087 0-38.244-17.155-38.244-38.243S27.493 10.337 48.58 10.337 86.824 27.492 86.824 48.58 69.667 86.823 48.58 86.823z"/><path d="M73.898 47.08H52.066V20.83a4 4 0 0 0-8 0v30.25a4 4 0 0 0 4 4h25.832a4 4 0 0 0 0-8z"/></symbol><symbol viewBox="0 0 512 512" id="consultant" xmlns="http://www.w3.org/2000/svg"><path d="M386.395 139.102a23.326 23.326 0 0 0-17.137-7.531h-11.945l1.421-21.792 1.764-27.056c1.362-20.886-5.77-40.8-20.08-56.074-14.31-15.274-33.718-23.685-54.647-23.685h-59.546c-20.93 0-40.337 8.411-54.647 23.685-14.31 15.274-21.441 35.187-20.08 56.074l2.647 40.581.539 8.267h-12.966a23.322 23.322 0 0 0-17.137 7.531 23.319 23.319 0 0 0-6.041 17.718l3.885 45.267c.802 9.357 6.924 16.917 15.265 19.895v42.178c0 5.633 4.566 10.199 10.199 10.199s10.199-4.566 10.199-10.199v-40.797h2.74c3.684 30.648 21.696 57.47 48.968 72.471 14.468 7.957 30.333 11.935 46.204 11.935 15.868 0 31.741-3.979 46.204-11.935 13.855-7.62 25.312-18.297 33.726-30.97 7.017-.721 13.53-2.663 19.504-5.857 29.474-15.762 32.991-55.293 33.126-56.968v-.004l3.876-45.216a23.318 23.318 0 0 0-6.041-17.717zm-240.794 63.862a2.847 2.847 0 0 1-2.853-2.619l-3.881-45.268a2.799 2.799 0 0 1 .744-2.182 2.797 2.797 0 0 1 2.109-.927h14.296l3.326 50.996h-13.741zm26.256-121.569c-.991-15.197 4.197-29.686 14.609-40.8 10.411-11.113 24.533-17.233 39.762-17.233h59.546c1.321 0 2.63.063 3.933.154l-15.8 42.132c-2.554 4.244-25.729 39.11-100.073 46.059l-1.977-30.312zm159.462 135.342a75.625 75.625 0 0 1-7.24 27.77c-8.751-.963-18.733-4.198-29.888-9.684.369-1.724.567-3.51.567-5.342 0-14.06-11.438-25.498-25.498-25.498s-25.498 11.438-25.498 25.498 11.438 25.498 25.498 25.498c4.656 0 9.021-1.261 12.782-3.449 10.469 5.392 20.329 9.199 29.547 11.396a75.77 75.77 0 0 1-19.214 15.035c-22.776 12.528-49.972 12.528-72.748 0-22.699-12.485-37.258-35.372-38.944-61.223l-5.522-84.68c57.446-5.269 88.777-26.267 104.215-41.341 4.128 4.734 10.026 9.094 17.645 13.029 8.233 4.253 21.935 8.725 40.798 13.319l-6.5 99.672zm-56.96 12.745c0 2.812-2.288 5.1-5.1 5.1s-5.1-2.288-5.1-5.1 2.288-5.1 5.1-5.1 5.1 2.288 5.1 5.1zm65.784-148.088l-.977 14.994c-18.901-4.751-28.215-8.404-32.783-10.764-11.122-5.746-13.632-10.499-13.699-11.958.008-.02.013-.041.02-.061l.017-.042 16.798-44.794c5.927 2.873 11.346 6.844 16.014 11.826 10.414 11.113 15.602 25.603 14.61 40.799zm7.548 158.524a96.378 96.378 0 0 0 3.482-16.555h10.464c-3.073 6.297-7.526 12.495-13.946 16.555zm20.54-39.573a2.847 2.847 0 0 1-2.853 2.619h-12.72l3.326-50.996h13.275c1.04 0 1.722.504 2.109.927.389.423.832 1.144.744 2.181l-3.881 45.269zm143.606 296.674l-9.862-54.436c-5.527-30.507-20.03-58.2-41.943-80.085-21.657-21.63-48.95-36.047-78.93-41.692a152.168 152.168 0 0 0-28.089-2.622h-29.699a10.203 10.203 0 0 0-7.212 2.987L256 381.273l-60.102-60.103a10.2 10.2 0 0 0-7.212-2.987h-29.7c-9.394 0-18.844.882-28.087 2.622h-.002c-29.979 5.645-57.273 20.062-78.93 41.692-21.912 21.885-36.416 49.578-41.943 80.085L.162 497.019a10.196 10.196 0 0 0 10.036 12.016H501.8a10.2 10.2 0 0 0 10.037-12.016zm-248.624-94.111l64.326-64.327h25.476c1.321 0 2.642.02 3.963.06L256 439.619l-14.749-14.749 21.962-21.962zm-104.227-64.327h25.475l57.115 57.116-14.749 14.749-71.803-71.804a124.68 124.68 0 0 1 3.962-.061zM22.412 488.638l7.685-42.418c9.295-51.307 48.902-92.597 99.378-104.278l119.313 119.313a10.202 10.202 0 0 0 14.425 0l119.313-119.313c50.475 11.681 90.082 52.971 99.378 104.278l7.685 42.418H22.412zm125.476-204.08c-5.633 0-10.199 4.566-10.199 10.199v4.08c0 5.633 4.566 10.199 10.199 10.199s10.199-4.566 10.199-10.199v-4.08c.001-5.633-4.565-10.199-10.199-10.199z"/></symbol><symbol viewBox="0 0 480 480" id="gym" xmlns="http://www.w3.org/2000/svg"><path d="M472 144h-24v-12c0-15.464-12.536-28-28-28-4.16.023-8.261.983-12 2.808V96c0-17.673-14.327-32-32-32-17.673 0-32 14.327-32 32v48h-32v-8c.058-13.197-10.593-23.943-23.79-24.002A23.89 23.89 0 0 0 272 118.24c-9.044-8.32-22.956-8.32-32 0-9.044-8.32-22.956-8.32-32 0-9.75-8.894-24.864-8.2-33.758 1.55A23.9 23.9 0 0 0 168 136v8h-32V96c0-17.673-14.327-32-32-32-17.673 0-32 14.327-32 32v10.808A27.706 27.706 0 0 0 60 104c-15.464 0-28 12.536-28 28v12H8a8 8 0 0 0-8 8v48a8 8 0 0 0 8 8h24v12c0 15.464 12.536 28 28 28a27.706 27.706 0 0 0 12-2.808V256c0 17.673 14.327 32 32 32 17.673 0 32-14.327 32-32v-48h16v26.744a39.745 39.745 0 0 0 11.72 28.28L184 283.312V416h16V280a8 8 0 0 0-2.344-5.656l-22.624-22.632A24.133 24.133 0 0 1 168 234.744V184h46.856a9.6 9.6 0 0 1 7.744 3.752c.056.08.12.16.176.248.343.546.612 1.135.8 1.752.151.493.253.999.304 1.512.056.502.056 1.01 0 1.512a6.507 6.507 0 0 1-.104.8 8.37 8.37 0 0 1-.92 2.4A7.903 7.903 0 0 1 216 200h-24a8 8 0 0 0-8 8v16a8 8 0 0 0 5.472 7.592l17.6 5.88C221.36 242.216 232 263.84 232 280h16c0-22.008-13.696-50.336-35.832-57.712L200 218.232V216h16a23.864 23.864 0 0 0 17.6-8H304v29.336a24.138 24.138 0 0 1-4.8 14.4L281.6 275.2a7.998 7.998 0 0 0-1.6 4.8v136h16V282.664l16-21.328a40.226 40.226 0 0 0 8-24V208h24v48c0 17.673 14.327 32 32 32 17.673 0 32-14.327 32-32v-10.808A27.706 27.706 0 0 0 420 248c15.464 0 28-12.536 28-28v-12h24a8 8 0 0 0 8-8v-48a8 8 0 0 0-8-8zM32 192H16v-32h16v32zm40 28c0 6.627-5.373 12-12 12s-12-5.373-12-12v-88c0-6.627 5.373-12 12-12s12 5.373 12 12v88zm48 36c0 8.837-7.163 16-16 16s-16-7.163-16-16V96c0-8.837 7.163-16 16-16s16 7.163 16 16v160zm40-88a8 8 0 0 0-8 8v16h-16v-32h32c.009 1.512.161 3.021.456 4.504.088.472.24.904.352 1.36.184.712.32 1.448.56 2.136H160zm40-8a8 8 0 0 1-16 0v-24a8 8 0 0 1 16 0v24zm32 0a8 8 0 0 1-16 0v-24a8 8 0 0 1 16 0v24zm48-24a8 8 0 0 1 16 0v24a8 8 0 0 1-16 0v-24zm-32 0a8 8 0 0 1 16 0v24a8 8 0 0 1-16 0v-24zm96 56H240v-.224a23.85 23.85 0 0 0-.496-4.736c-.048-.216-.152-.416-.2-.64-.144-.584-.352-1.128-.536-1.696a23.215 23.215 0 0 0-1.224-2.992c-.232-.48-.344-1.024-.608-1.488.091-.062.179-.129.264-.2.368-.24.688-.528 1.04-.8.6-.448 1.232-.864 1.792-1.368.464.416 1 .744 1.496 1.12.496.376.984.8 1.52 1.136.755.466 1.535.891 2.336 1.272.544.264 1.056.576 1.6.8.934.358 1.891.655 2.864.888.504.136.976.328 1.496.432 3.077.629 6.25.629 9.328 0 .52-.104.992-.296 1.496-.432.973-.233 1.93-.53 2.864-.888.568-.232 1.08-.544 1.6-.8a24.548 24.548 0 0 0 2.344-1.272c.528-.352 1.008-.752 1.512-1.136.504-.384 1.032-.704 1.496-1.12.464.416 1 .744 1.496 1.12.496.376.984.8 1.52 1.136.755.466 1.535.891 2.336 1.272.544.264 1.056.576 1.6.8.934.358 1.891.655 2.864.888.504.136.976.328 1.496.432 12.955 2.633 25.591-5.734 28.224-18.688.322-1.585.483-3.198.48-4.816h32v32zm48 64c0 8.837-7.163 16-16 16s-16-7.163-16-16V96c0-8.837 7.163-16 16-16s16 7.163 16 16v160zm40-36c0 6.627-5.373 12-12 12s-12-5.373-12-12v-88c0-6.627 5.373-12 12-12s12 5.373 12 12v88zm32-28h-16v-32h16v32z"/></symbol><symbol viewBox="0 0 337 338.5" id="logo" xmlns="http://www.w3.org/2000/svg"><path d="M117.7 16.8l50.8-15.7 51.3 15.7v19.7l-51.3-16.3-50.8 16.3V16.8zm0 25.9L168.6 27l51.3 15.7v19.7L168.6 46l-50.8 16.3V42.7h-.1zm0 25.9l50.8-15.7 51.3 15.7v19.7L168.5 72l-50.8 16.3V68.6zm0 25.9l50.8-15.7 51.3 15.7v19.7l-51.3-16.3-50.8 16.3V94.5zm0 25.8l50.8-15.7 51.3 15.7V140l-51.3-16.3-50.8 16.3v-19.7zm0 25.9l50.8-15.7 51.3 15.7v19.7l-51.3-16.3-50.8 16.3v-19.7zm0 25.9l50.8-15.7 51.3 15.7v19.7l-51.3-16.3-50.8 16.3v-19.7zm105.4 37v-7.2l-54.3-16.7-53.8 16.6v7.5c-42.9 8.4-79.2 26.4-99.3 49.6 37.4-16.6 92.2-27.1 153.1-27.1s115.7 10.5 153.1 27.1c-20.3-23.4-55.2-41.6-98.8-49.8zm-55.3-4.9zM56.2 60.5l52.5-15.8v17.7L56.2 78.8V60.5zm0 26.4l52.5-15.8v17.7l-52.5 16.4V86.9zm0 26.4l52.5-15.8v17.7l-52.5 16.4v-18.3zm0 26.4l52.5-15.8v17.7L56.2 158v-18.3zm0 26.4l52.5-15.8V168l-52.5 16.4v-18.3zm0 26.4l52.5-15.8v17.7l-52.5 16.4v-18.3zM280.7 78.8l-52.5-16.4V44.7l52.5 15.8v18.3zm0 26.4l-52.5-16.4V71.1l52.5 15.8v18.3zm0 26.4l-52.5-16.4V97.5l52.5 15.8v18.3zm0 26.4l-52.5-16.4v-17.7l52.5 15.8V158zm0 26.4L228.2 168v-17.7l52.5 15.8v18.3zm0 26.4l-52.5-16.4v-17.7l52.5 15.8v18.3zm-265 53.7v27.8l7.3.2 13.5-28h17l-17.7 35.3 18.7 38.7H36.8l-14.3-29.3h-6.8v29.3H0v-74h15.7zm42.1 0v73.3l49.3.7v-74H57.8zm33.7 57.3H73.3v-41.7h18.2v41.7zm73.8-57.3h-50v74h16.5l-.2-22.7h33.7v-51.3zM149.5 300h-18.2v-19.8h18.2V300zm23.2-35.5v73.3l49.7.7v-74h-49.7zm34 57.3h-18v-41.7h18v41.7zm23.6-57.3h16.3v28.3h17.7v-28.3h16.3v74H264l-.2-29.8-17.5.3.3 29.5h-16.3v-74zm99.2-.7l-38.2.7-7.2 74H301l1.5-17.7H319l2.2 17.7H337l-7.5-74.7zm-26.3 40.9l2.2-24.5h10.8l1.8 24.5h-14.8z"/></symbol><symbol viewBox="0 0 512 512" id="loupe" xmlns="http://www.w3.org/2000/svg"><path d="M310 190c-5.52 0-10 4.48-10 10s4.48 10 10 10 10-4.48 10-10-4.48-10-10-10z"/><path d="M500.281 443.719l-133.48-133.48C388.546 277.485 400 239.555 400 200 400 89.72 310.28 0 200 0S0 89.72 0 200s89.72 200 200 200c39.556 0 77.486-11.455 110.239-33.198l36.895 36.895.016.016 96.568 96.568C451.276 507.838 461.319 512 472 512c10.681 0 20.724-4.162 28.278-11.716C507.837 492.731 512 482.687 512 472s-4.163-20.731-11.719-28.281zm-194.745-97.992l-.002.002C274.667 368.149 238.175 380 200 380c-99.252 0-180-80.748-180-180S100.748 20 200 20s180 80.748 180 180c0 38.175-11.851 74.667-34.272 105.535a180.872 180.872 0 0 1-40.192 40.192zm20.98 9.066a200.674 200.674 0 0 0 28.277-28.277l28.371 28.371a242.733 242.733 0 0 1-28.277 28.277l-28.371-28.371zm159.623 131.346c-3.78 3.78-8.801 5.861-14.139 5.861s-10.359-2.081-14.139-5.861l-88.795-88.795a262.775 262.775 0 0 0 28.277-28.277l88.798 88.798A19.846 19.846 0 0 1 492 472a19.856 19.856 0 0 1-5.861 14.139z"/><path d="M200 40c-88.225 0-160 71.775-160 160s71.775 160 160 160 160-71.775 160-160S288.225 40 200 40zm0 300c-77.196 0-140-62.804-140-140S122.804 60 200 60s140 62.804 140 140-62.804 140-140 140z"/><path d="M312.065 157.073c-8.611-22.412-23.604-41.574-43.36-55.413C248.479 87.49 224.721 80 200 80c-5.522 0-10 4.478-10 10s4.478 10 10 10c41.099 0 78.631 25.818 93.396 64.247a10.003 10.003 0 0 0 9.337 6.416 9.978 9.978 0 0 0 3.584-.668c5.155-1.981 7.729-7.766 5.748-12.922z"/></symbol><symbol viewBox="0 0 430.114 430.114" id="map" xmlns="http://www.w3.org/2000/svg"><path d="M356.208 107.051c-1.531-5.738-4.64-11.852-6.94-17.205C321.746 23.704 261.611 0 213.055 0 148.054 0 76.463 43.586 66.905 133.427v18.355c0 .766.264 7.647.639 11.089 5.358 42.816 39.143 88.32 64.375 131.136 27.146 45.873 55.314 90.999 83.221 136.106 17.208-29.436 34.354-59.259 51.17-87.933 4.583-8.415 9.903-16.825 14.491-24.857 3.058-5.348 8.9-10.696 11.569-15.672 27.145-49.699 70.838-99.782 70.838-149.104v-20.262c.001-5.347-6.627-24.081-7-25.234zm-141.963 92.142c-19.107 0-40.021-9.554-50.344-35.939-1.538-4.2-1.414-12.617-1.414-13.388v-11.852c0-33.636 28.56-48.932 53.406-48.932 30.588 0 54.245 24.472 54.245 55.06 0 30.587-25.305 55.051-55.893 55.051z"/></symbol><symbol viewBox="0 0 512 512" id="medical" xmlns="http://www.w3.org/2000/svg"><path d="M467 126.568H355.559V89.827c0-22.446-18.262-40.708-40.709-40.708h-117.7c-22.447 0-40.709 18.262-40.709 40.708v36.741H45c-24.813 0-45 20.187-45 45v246.313c0 24.813 20.187 45 45 45h422c24.813 0 45-20.187 45-45V171.568c0-24.813-20.187-45-45-45zM186.441 89.827c0-5.904 4.804-10.708 10.709-10.708h117.7c5.905 0 10.709 4.804 10.709 10.708v36.741H186.441V89.827zM482 417.881c0 8.271-6.729 15-15 15H45c-8.271 0-15-6.729-15-15V171.568c0-8.271 6.729-15 15-15h422c8.271 0 15 6.729 15 15v246.313z"/><path d="M256 167.447c-70.899 0-128.58 57.682-128.58 128.581s57.681 128.58 128.58 128.58 128.58-57.681 128.58-128.58S326.899 167.447 256 167.447zm0 227.161c-54.357 0-98.58-44.223-98.58-98.58s44.223-98.581 98.58-98.581 98.58 44.224 98.58 98.581-44.223 98.58-98.58 98.58z"/><path d="M295.772 281.028H271v-24.772c0-8.284-6.716-15-15-15s-15 6.716-15 15v24.772h-24.772c-8.284 0-15 6.716-15 15s6.716 15 15 15H241V335.8c0 8.284 6.716 15 15 15s15-6.716 15-15v-24.772h24.772c8.284 0 15-6.716 15-15s-6.715-15-15-15z"/></symbol><symbol viewBox="0 0 416.001 416.001" id="medicine" xmlns="http://www.w3.org/2000/svg"><path d="M286.05 118.9v-22c21.9-1.4 38.9-19.5 39-41.4V41.3c0-22.9-18.9-41.3-41.8-41.3h-149.9c-22.8-.1-41.3 18.3-41.3 41.1v14.4c-.2 21.6 16.4 39.7 38 41.4v22c-32.2 2.9-56.9 29.9-57 62.3v172.5c0 34.4 27.9 62.3 62.3 62.3h145.2c34.4.1 62.4-27.8 62.4-62.2V181.2c0-32.4-24.7-59.4-56.9-62.3zm-14-98.9h11.2c11.9 0 21.8 9.4 21.8 21.3v14.2c-.1 11.9-9.9 21.5-21.8 21.5h-11.2V20zm-52 0h32v57h-32V20zm-53 0h33v57h-33V20zm-17 77h116v22h-116V97zm-38-41.3V41.3c-.1-11.7 9.4-21.2 21.1-21.3h13.9v57h-13.7c-11.8 0-21.3-9.6-21.3-21.3zm211 298.7c0 23.5-19.1 42.6-42.6 42.6h-144.8c-23.5 0-42.6-19.1-42.6-42.6V181.6c0-23.5 19.1-42.6 42.6-42.6h144.8c23.5 0 42.6 19.1 42.6 42.6v172.8z"/><path d="M248.55 257h-30.5v-30.1c0-5.5-4.5-10-10-10s-10 4.5-10 10V257h-30.5c-5.5 0-10 4.5-10 10s4.5 10 10 10h30.5v30.9c0 5.5 4.5 10 10 10s10-4.5 10-10V277h30.5c5.5 0 10-4.5 10-10s-4.5-10-10-10z"/><path d="M208.05 178c-49.1 0-88.9 39.8-88.9 88.9s39.8 88.9 88.9 88.9c49.1 0 88.9-39.8 88.9-88.9-.1-49.1-39.8-88.8-88.9-88.9zm0 157.8c-38 0-68.9-30.8-68.9-68.9 0-38.1 30.9-68.9 68.9-68.9s68.9 30.8 68.9 68.9c-.1 38-30.9 68.8-68.9 68.9z"/></symbol><symbol viewBox="0 0 27.442 27.442" id="phone" xmlns="http://www.w3.org/2000/svg"><path d="M19.494 0H7.948a1.997 1.997 0 0 0-1.997 1.999v23.446c0 1.102.892 1.997 1.997 1.997h11.546a1.998 1.998 0 0 0 1.997-1.997V1.999A1.999 1.999 0 0 0 19.494 0zm-8.622 1.214h5.7c.144 0 .261.215.261.481s-.117.482-.261.482h-5.7c-.145 0-.26-.216-.26-.482s.115-.481.26-.481zm2.85 24.255a1.275 1.275 0 1 1 0-2.55 1.275 1.275 0 0 1 0 2.55zm6.273-4.369H7.448V3.373h12.547V21.1z"/></symbol><symbol viewBox="0 0 510.127 510.127" id="ruble" xmlns="http://www.w3.org/2000/svg"><path d="M34.786 428.963h81.158v69.572c0 3.385 1.083 6.156 3.262 8.322 2.173 2.18 4.951 3.27 8.335 3.27h60.502c3.14 0 5.857-1.09 8.152-3.27 2.295-2.166 3.439-4.938 3.439-8.322v-69.572h182.964c3.377 0 6.156-1.076 8.334-3.256 2.18-2.178 3.262-4.951 3.262-8.336v-46.377c0-3.365-1.082-6.156-3.262-8.322-2.172-2.18-4.957-3.27-8.334-3.27h-182.97v-42.754h123.184c48.305 0 87.73-14.719 118.293-44.199 30.551-29.449 45.834-67.49 45.834-114.125 0-46.604-15.283-84.646-45.834-114.125C410.548 14.749 371.116 0 322.812 0H127.535c-3.385 0-6.157 1.089-8.335 3.256-2.173 2.179-3.262 4.969-3.262 8.335v227.896H34.786c-3.384 0-6.157 1.145-8.335 3.439-2.172 2.295-3.262 5.012-3.262 8.151v53.978c0 3.385 1.083 6.158 3.262 8.336 2.179 2.18 4.945 3.256 8.335 3.256h81.158v42.754H34.786c-3.384 0-6.157 1.09-8.335 3.27-2.172 2.166-3.262 4.951-3.262 8.322v46.377c0 3.385 1.083 6.158 3.262 8.336 2.178 2.181 4.95 3.257 8.335 3.257zM199.628 77.179h115.938c25.6 0 46.248 7.485 61.953 22.46 15.697 14.976 23.549 34.547 23.549 58.691 0 24.156-7.852 43.733-23.549 58.691-15.705 14.988-36.354 22.473-61.953 22.473H199.628V77.179z"/></symbol><symbol viewBox="0 0 486.569 486.569" id="shopping" xmlns="http://www.w3.org/2000/svg"><path d="M146.069 320.369h268.1c30.4 0 55.2-24.8 55.2-55.2v-114c0-.2 0-.4-.1-.6 0-.2-.1-.5-.1-.7s-.1-.4-.1-.6c-.1-.2-.1-.4-.2-.7-.1-.2-.1-.4-.2-.6-.1-.2-.1-.4-.2-.6-.1-.2-.2-.4-.3-.7-.1-.2-.2-.4-.3-.5l-.3-.6c-.1-.2-.2-.3-.3-.5-.1-.2-.3-.4-.4-.6-.1-.2-.2-.3-.4-.5-.1-.2-.3-.3-.4-.5s-.3-.3-.4-.5-.3-.3-.4-.4l-.5-.5c-.2-.1-.3-.3-.5-.4-.2-.1-.4-.3-.6-.4-.2-.1-.3-.2-.5-.3s-.4-.2-.6-.4l-.6-.3-.6-.3-.6-.3c-.2-.1-.4-.1-.6-.2-.2-.1-.5-.2-.7-.2s-.4-.1-.5-.1c-.3-.1-.5-.1-.8-.1-.1 0-.2-.1-.4-.1l-339.8-46.9v-47.4c0-.5 0-1-.1-1.4 0-.1 0-.2-.1-.4 0-.3-.1-.6-.1-.9-.1-.3-.1-.5-.2-.8 0-.2-.1-.3-.1-.5l-.3-.9c0-.1-.1-.3-.1-.4-.1-.3-.2-.5-.4-.8-.1-.1-.1-.3-.2-.4-.1-.2-.2-.4-.4-.6-.1-.2-.2-.3-.3-.5s-.2-.3-.3-.5-.3-.4-.4-.6l-.3-.3-.6-.6-.3-.3c-.2-.2-.4-.4-.7-.6-.1-.1-.3-.2-.4-.3-.2-.2-.4-.3-.6-.5-.3-.2-.6-.4-.8-.5-.1-.1-.2-.1-.3-.2-.4-.2-.9-.4-1.3-.6l-73.7-31c-6.9-2.9-14.8.3-17.7 7.2s.3 14.8 7.2 17.7l65.4 27.6v295.8c0 28 21 51.2 48.1 54.7-4.9 8.2-7.8 17.8-7.8 28 0 30.1 24.5 54.5 54.5 54.5s54.5-24.5 54.5-54.5c0-10-2.7-19.5-7.5-27.5h121.4c-4.8 8.1-7.5 17.5-7.5 27.5 0 30.1 24.5 54.5 54.5 54.5s54.5-24.5 54.5-54.5-24.5-54.5-54.5-54.5h-255c-15.6 0-28.2-12.7-28.2-28.2v-36.6c8.2 4.8 17.9 7.6 28.2 7.6zm67.2 111.6c0 15.2-12.4 27.5-27.5 27.5s-27.5-12.4-27.5-27.5 12.4-27.5 27.5-27.5 27.5 12.3 27.5 27.5zm215.4 0c0 15.2-12.4 27.5-27.5 27.5s-27.5-12.4-27.5-27.5 12.4-27.5 27.5-27.5 27.5 12.3 27.5 27.5zm-14.5-138.6h-268.1c-15.6 0-28.2-12.7-28.2-28.2v-145.9l324.5 44.7v101.1c0 15.7-12.7 28.3-28.2 28.3z"/></symbol><symbol viewBox="0 0 511.999 511.999" id="sketch" xmlns="http://www.w3.org/2000/svg"><path d="M453.034 361.322a7.514 7.514 0 0 0-8.19 1.628l-82.126 82.126a7.514 7.514 0 0 0 5.315 12.829h82.126a7.514 7.514 0 0 0 7.515-7.515v-82.126a7.517 7.517 0 0 0-4.64-6.942zm-66.861 81.554l56.469-56.469v56.469h-56.469z"/><path d="M507.361 240.867a7.514 7.514 0 0 0-8.19 1.628l-22.507 22.507V111.971a7.515 7.515 0 0 0-7.515-7.515h-57.741l20.96-20.96.009-.01 20.196-20.196c4.327-4.327 6.71-10.083 6.71-16.203s-2.383-11.874-6.71-16.203L429.219 7.53C424.892 3.203 419.136.82 413.016.82s-11.875 2.383-16.203 6.71l-20.206 20.206-24.416 24.416-52.303 52.303H66.62V30.11a7.515 7.515 0 0 0-7.515-7.515C26.515 22.597 0 49.11 0 81.702v319.186c0 .555.064 1.095.178 1.615 1.038 13.829 7.021 26.678 17.02 36.432C27.886 449.359 41.995 455.1 56.927 455.1h229.638l-43.249 43.249a7.516 7.516 0 0 0 5.314 12.829h255.855a7.515 7.515 0 0 0 7.515-7.515V247.81a7.517 7.517 0 0 0-4.639-6.943zM407.443 18.159c3.072-3.074 8.077-3.074 11.149 0l23.355 23.355c3.074 3.073 3.074 8.076 0 11.15l-14.891 14.892-34.506-34.505 14.893-14.892zm-25.521 25.52l34.505 34.504-13.789 13.789-34.503-34.504 13.787-13.789zm115.05 288.573h-13.865a7.514 7.514 0 0 0-7.515 7.515 7.514 7.514 0 0 0 7.515 7.515h13.865v22.646h-13.865c-4.151 0-7.515 3.364-7.515 7.515s3.364 7.515 7.515 7.515h13.865v22.645h-13.865a7.514 7.514 0 0 0-7.515 7.515 7.514 7.514 0 0 0 7.515 7.515h13.865v22.646h-13.865a7.515 7.515 0 1 0 0 15.03h13.865v35.842h-230.2l75.908-75.907a7.515 7.515 0 0 0 0-10.628 7.572 7.572 0 0 0-1.078-.889 7.514 7.514 0 0 0-9.551.889l-30.456 30.456H56.928c-22.792 0-41.14-17.794-41.862-40.545a44.19 44.19 0 0 1 .332-4.244l.003-.024c.084-.665.185-1.327.3-1.985l.04-.225a43.474 43.474 0 0 1 1.057-4.494c.11-.382.224-.763.345-1.14.121-.377.25-.75.381-1.123.091-.261.181-.522.279-.781.183-.492.377-.979.577-1.462.057-.139.113-.28.172-.419.257-.6.524-1.193.806-1.779l.035-.075c5.878-12.164 17.183-21.233 30.75-24.047l.114-.025c.622-.127 1.25-.236 1.882-.337.105-.017.21-.038.317-.054a44.641 44.641 0 0 1 1.725-.22c.162-.018.323-.043.486-.059a44.442 44.442 0 0 1 1.681-.128c.178-.011.356-.03.534-.039a44.298 44.298 0 0 1 2.223-.056 7.515 7.515 0 0 0 7.515-7.515v-54.489a7.515 7.515 0 1 0-15.03 0v47.447c-12.69 1.605-24.469 7.265-33.757 16.335a60.423 60.423 0 0 0-2.805 2.954V81.702c0-21.741 15.826-39.858 36.561-43.436v226.483a7.516 7.516 0 0 0 15.03 0V119.486h218.24l-41.544 41.544a7.515 7.515 0 0 0 10.627 10.628l54.373-54.373.005-.005 49.185-49.185 34.503 34.505-4.048 4.048-.01.009-151.528 151.53-34.504-34.504 29.868-29.868a7.515 7.515 0 0 0-10.627-10.628l-35.183 35.182a7.546 7.546 0 0 0-.529.591c-.055.068-.104.141-.156.212-.106.141-.21.283-.307.431-.055.086-.105.174-.157.263a6.301 6.301 0 0 0-.371.714 7.526 7.526 0 0 0-.186.447c-.02.053-.046.103-.065.156l-14.641 41.475-9.982 28.279a7.599 7.599 0 0 0-.298 1.143h-24.992a7.515 7.515 0 1 0 0 15.03h208.114a7.514 7.514 0 0 0 7.515-7.515 7.514 7.514 0 0 0-7.515-7.515H193.093l45.83-16.178c.038-.014.074-.033.112-.047.178-.066.353-.14.526-.219.069-.032.138-.062.205-.095.18-.09.357-.189.531-.295.056-.034.114-.065.169-.1.181-.116.357-.243.53-.377.043-.033.088-.062.13-.096.209-.168.414-.349.608-.543l154.644-154.643h65.255v160.546L354.137 387.53a7.515 7.515 0 1 0 10.628 10.628l.003-.003L496.972 265.95v66.302zm-274.295-66.556l-21.526 7.599-14.342-14.342 7.599-21.526 28.269 28.269z"/></symbol><symbol viewBox="0 0 512 512" id="skyline" xmlns="http://www.w3.org/2000/svg"><path d="M480.36 494.742h-14.382V43.146a8.629 8.629 0 0 0-8.629-8.629H296.27a8.628 8.628 0 0 0-8.629 8.629v37.393h-17.258V43.146a8.629 8.629 0 0 0-8.629-8.629H224.36V8.629c0-4.767-3.864-8.629-8.629-8.629s-8.629 3.862-8.629 8.629v25.888h-37.393a8.628 8.628 0 0 0-8.629 8.629v37.393h-25.888a8.628 8.628 0 0 0-8.629 8.629v71.91h-71.91a8.628 8.628 0 0 0-8.629 8.629v325.034H31.64c-4.766 0-8.629 3.862-8.629 8.629S26.875 512 31.64 512h448.72c4.766 0 8.629-3.862 8.629-8.629s-3.864-8.629-8.629-8.629zM178.337 51.775h74.786v28.764h-74.786V51.775zm-28.764 442.967h-5.753V480.36c0-4.767-3.864-8.629-8.629-8.629s-8.629 3.862-8.629 8.629v14.382h-5.753v-28.764h28.764v28.764zm57.528-221.484v221.484h-40.27v-37.393a8.629 8.629 0 0 0-8.629-8.629H112.18a8.628 8.628 0 0 0-8.629 8.629v37.393h-40.27V178.337h143.82v94.921zm8.629-112.179h-71.91V97.798h143.82v166.831h-63.28v-28.764h25.888c4.766 0 8.629-3.862 8.629-8.629s-3.864-8.629-8.629-8.629H224.36v-28.764h25.888c4.766 0 8.629-3.862 8.629-8.629s-3.864-8.629-8.629-8.629H224.36v-2.876a8.629 8.629 0 0 0-8.63-8.63zm152.45 333.663H224.36V281.888h143.82v212.854zm80.539 0h-63.281v-232.99c0-4.767-3.864-8.629-8.629-8.629s-8.629 3.862-8.629 8.629v2.876h-17.258v-2.876c0-4.767-3.864-8.629-8.629-8.629s-8.629 3.862-8.629 8.629v2.876H304.9V51.775h143.82v442.967z"/><path d="M261.753 477.485a8.63 8.63 0 0 0 8.629-8.629V307.778c0-4.767-3.864-8.629-8.629-8.629s-8.629 3.862-8.629 8.629v161.079a8.628 8.628 0 0 0 8.629 8.628zm34.517 0a8.63 8.63 0 0 0 8.629-8.629V307.778c0-4.767-3.864-8.629-8.629-8.629s-8.629 3.862-8.629 8.629v161.079a8.628 8.628 0 0 0 8.629 8.628zm34.516 0a8.63 8.63 0 0 0 8.629-8.629V307.778c0-4.767-3.864-8.629-8.629-8.629s-8.629 3.862-8.629 8.629v161.079a8.629 8.629 0 0 0 8.629 8.628zm11.506-368.182a8.628 8.628 0 0 0 8.629-8.629V89.169c0-4.767-3.864-8.629-8.629-8.629s-8.629 3.862-8.629 8.629v11.506a8.628 8.628 0 0 0 8.629 8.628zm34.517 0a8.628 8.628 0 0 0 8.629-8.629V89.169c0-4.767-3.864-8.629-8.629-8.629s-8.629 3.862-8.629 8.629v11.506a8.628 8.628 0 0 0 8.629 8.628zm34.517 0a8.628 8.628 0 0 0 8.629-8.629V89.169c0-4.767-3.864-8.629-8.629-8.629s-8.629 3.862-8.629 8.629v11.506a8.628 8.628 0 0 0 8.629 8.628zm-69.034 57.528a8.628 8.628 0 0 0 8.629-8.629v-11.506c0-4.767-3.864-8.629-8.629-8.629s-8.629 3.862-8.629 8.629v11.506a8.628 8.628 0 0 0 8.629 8.629zm34.517 0a8.628 8.628 0 0 0 8.629-8.629v-11.506c0-4.767-3.864-8.629-8.629-8.629s-8.629 3.862-8.629 8.629v11.506a8.628 8.628 0 0 0 8.629 8.629zm34.517 0a8.628 8.628 0 0 0 8.629-8.629v-11.506c0-4.767-3.864-8.629-8.629-8.629s-8.629 3.862-8.629 8.629v11.506a8.628 8.628 0 0 0 8.629 8.629zm-69.034 57.529a8.628 8.628 0 0 0 8.629-8.629v-11.506c0-4.767-3.864-8.629-8.629-8.629s-8.629 3.862-8.629 8.629v11.506a8.629 8.629 0 0 0 8.629 8.629zm34.517 0a8.628 8.628 0 0 0 8.629-8.629v-11.506c0-4.767-3.864-8.629-8.629-8.629s-8.629 3.862-8.629 8.629v11.506a8.629 8.629 0 0 0 8.629 8.629zm34.517 0a8.628 8.628 0 0 0 8.629-8.629v-11.506c0-4.767-3.864-8.629-8.629-8.629s-8.629 3.862-8.629 8.629v11.506a8.629 8.629 0 0 0 8.629 8.629zm-310.652 23.011a8.628 8.628 0 0 0 8.629-8.629v-11.506c0-4.767-3.864-8.629-8.629-8.629s-8.629 3.862-8.629 8.629v11.506a8.63 8.63 0 0 0 8.629 8.629zm34.517 0a8.628 8.628 0 0 0 8.629-8.629v-11.506c0-4.767-3.864-8.629-8.629-8.629s-8.629 3.862-8.629 8.629v11.506a8.629 8.629 0 0 0 8.629 8.629zm34.517 0a8.628 8.628 0 0 0 8.629-8.629v-11.506c0-4.767-3.864-8.629-8.629-8.629s-8.629 3.862-8.629 8.629v11.506a8.629 8.629 0 0 0 8.629 8.629zm-69.034 57.528a8.628 8.628 0 0 0 8.629-8.629v-11.506c0-4.767-3.864-8.629-8.629-8.629s-8.629 3.862-8.629 8.629v11.506a8.63 8.63 0 0 0 8.629 8.629zm34.517 0a8.628 8.628 0 0 0 8.629-8.629v-11.506c0-4.767-3.864-8.629-8.629-8.629s-8.629 3.862-8.629 8.629v11.506a8.629 8.629 0 0 0 8.629 8.629zm34.517 0a8.628 8.628 0 0 0 8.629-8.629v-11.506c0-4.767-3.864-8.629-8.629-8.629s-8.629 3.862-8.629 8.629v11.506a8.629 8.629 0 0 0 8.629 8.629zm-69.034 57.528a8.628 8.628 0 0 0 8.629-8.629v-11.506c0-4.767-3.864-8.629-8.629-8.629s-8.629 3.862-8.629 8.629v11.506a8.629 8.629 0 0 0 8.629 8.629zm34.517 0a8.628 8.628 0 0 0 8.629-8.629v-11.506c0-4.767-3.864-8.629-8.629-8.629s-8.629 3.862-8.629 8.629v11.506a8.628 8.628 0 0 0 8.629 8.629zm34.517 0a8.628 8.628 0 0 0 8.629-8.629v-11.506c0-4.767-3.864-8.629-8.629-8.629s-8.629 3.862-8.629 8.629v11.506a8.628 8.628 0 0 0 8.629 8.629zm-69.034 57.528a8.628 8.628 0 0 0 8.629-8.629V399.82c0-4.767-3.864-8.629-8.629-8.629s-8.629 3.862-8.629 8.629v11.506a8.629 8.629 0 0 0 8.629 8.629zm34.517 0a8.628 8.628 0 0 0 8.629-8.629V399.82c0-4.767-3.864-8.629-8.629-8.629s-8.629 3.862-8.629 8.629v11.506a8.628 8.628 0 0 0 8.629 8.629zm34.517 0a8.628 8.628 0 0 0 8.629-8.629V399.82c0-4.767-3.864-8.629-8.629-8.629s-8.629 3.862-8.629 8.629v11.506a8.628 8.628 0 0 0 8.629 8.629zm241.618-138.067a8.628 8.628 0 0 0 8.629-8.629v-11.506c0-4.767-3.864-8.629-8.629-8.629s-8.629 3.862-8.629 8.629v11.506a8.629 8.629 0 0 0 8.629 8.629zm0 57.528a8.628 8.628 0 0 0 8.629-8.629v-11.506c0-4.767-3.864-8.629-8.629-8.629s-8.629 3.862-8.629 8.629v11.506a8.629 8.629 0 0 0 8.629 8.629zm0 57.528a8.628 8.628 0 0 0 8.629-8.629v-11.506c0-4.767-3.864-8.629-8.629-8.629s-8.629 3.862-8.629 8.629v11.506a8.629 8.629 0 0 0 8.629 8.629zm0 57.528a8.628 8.628 0 0 0 8.629-8.629v-11.506c0-4.767-3.864-8.629-8.629-8.629s-8.629 3.862-8.629 8.629v11.506a8.629 8.629 0 0 0 8.629 8.629zm-152.45-319.281a8.629 8.629 0 0 0-8.629-8.629h-69.034a8.628 8.628 0 0 0-8.629 8.629 8.629 8.629 0 0 0 8.629 8.629h69.034a8.628 8.628 0 0 0 8.629-8.629z"/></symbol><symbol viewBox="0 0 452 452" id="transport" xmlns="http://www.w3.org/2000/svg"><path d="M359 265.05h-54c-5.5 0-10 4.5-10 10v37c0 5.5 4.5 10 10 10h54c5.5 0 10-4.5 10-10v-37c0-5.5-4.5-10-10-10zm-10 37h-34v-17h34v17zm-202-37H93c-5.5 0-10 4.5-10 10v37c0 5.5 4.5 10 10 10h54c5.5 0 10-4.5 10-10v-37c0-5.5-4.5-10-10-10zm-10 37h-34v-17h34v17zm129-2h-80c-5.5 0-10 4.5-10 10s4.5 10 10 10h80c5.5 0 10-4.5 10-10s-4.5-10-10-10zm0-28h-80c-5.5 0-10 4.5-10 10s4.5 10 10 10h80c5.5 0 10-4.5 10-10s-4.5-10-10-10z"/><path d="M426.1 185.05H402V76.25c0-22.6-18.2-41-40.8-41.1l-270.4-1.2c-22.5-.1-40.8 18.1-40.9 40.6v110.5H25.8c-14 0-25.8 11.3-25.8 25.4v31.1c0 14.1 11.8 25.4 25.9 25.4H50v65.6c-.1 14.6 7.5 28.2 20 35.7v24.3c0 14.1 11.9 25.4 26 25.4h33.5c14.1.1 25.5-11.3 25.5-25.3v-18.6h142v18.6c0 14.1 11.4 25.4 25.5 25.4H356c14.1 0 26-11.3 26-25.4v-24.3c12.5-7.5 20.1-21.1 20-35.7v-65.6h24.1c14.1 0 25.9-11.3 25.9-25.4v-31.2c0-14.1-11.8-25.4-25.9-25.4zm-376.1 62H25.9c-3.1.1-5.7-2.3-5.9-5.4v-31.2c.2-3.1 2.8-5.5 5.9-5.4H50v42zm19.9-161.4v-10.6c0-5.6 2.2-11 6.1-14.9 3.9-3.9 9.2-6.1 14.7-6.1h.1l270.3 1.2c11.6.1 20.9 9.5 20.8 21v10.8l-312-1.4zm65.1 307c0 3-2.4 5.4-5.4 5.4H96c-3.1 0-6-2.3-6-5.4v-18.9c1 0 .6.3.8.3H135v18.6zm227 0c0 3.1-2.9 5.4-6 5.4h-33.5c-3 .1-5.5-2.3-5.5-5.3v-18.7h44.2c.1 0-.2-.3.8-.3v18.9zm20-60.1c0 11.7-9.1 21.5-20.8 21.5H90.8c-11.6 0-20.8-9.8-20.8-21.4v-107.7l312 1.4v106.2zm-267.7-127.4c5.9-16.8 24.3-25.5 41.1-19.6 9.3 3.3 16.5 10.6 19.7 19.9l-60.8-.3zm267.7 1.2l-186.3-.8c-5.6-28.2-33-46.4-61.2-40.8-20.4 4-36.5 19.9-40.7 40.3l-23.8-.1v-99.3l312 1.4v99.3zm50 35.3c-.2 3.1-2.8 5.5-5.9 5.4H402v-42h24.1c3.1-.1 5.7 2.3 5.9 5.4v31.2z"/></symbol><symbol viewBox="0 0 207.3 244.6" id="uspensky3" xmlns="http://www.w3.org/2000/svg"><path d="M42.8 219.5v-1.4l-10.4-3.2-10.3 3.2v1.4c-8.2 1.6-15.2 5.1-19.1 9.5 7.2-3.2 17.7-5.2 29.4-5.2s22.2 2 29.4 5.2c-3.9-4.4-10.6-7.9-19-9.5zm-10.6-.9zm-9.6-36l9.8-3 9.9 3v3.8l-9.9-3.1-9.8 3.1v-3.8zm0 5l9.8-3 9.9 3v3.8l-9.9-3.1-9.8 3.1v-3.8zm0 5l9.8-3 9.9 3v3.8l-9.9-3.1-9.8 3.1v-3.8zm0 4.9l9.8-3 9.9 3v3.8l-9.9-3.1-9.8 3.1v-3.8zm0 5l9.8-3 9.9 3v3.8l-9.9-3.1-9.8 3.1v-3.8zm0 5l9.8-3 9.9 3v3.8l-9.9-3.1-9.8 3.1v-3.8zm0 4.9l9.8-3 9.9 3v3.8l-9.9-3.1-9.8 3.1v-3.8zM10.8 191l10.1-3v3.4l-10.1 3.2V191zm0 5.1l10.1-3v3.4l-10.1 3.2v-3.6zm0 5.1l10.1-3v3.4l-10.1 3.2v-3.6zm0 5l10.1-3v3.4l-10.1 3.2v-3.6zm0 5.1l10.1-3v3.4l-10.1 3.2v-3.6zm0 5.1l10.1-3v3.4L10.8 220v-3.6zm43.1-21.9l-10.1-3.2V188l10.1 3v3.5zm0 5.1l-10.1-3.2V193l10.1 3v3.6zm0 5.1l-10.1-3.2v-3.4l10.1 3v3.6zm0 5l-10.1-3.2v-3.4l10.1 3v3.6zm0 5.1l-10.1-3.2v-3.4l10.1 3v3.6zm0 5.1l-10.1-3.2v-3.4l10.1 3v3.6zM3 230.2v5.3h1.4l2.6-5.4h3.3L6.9 237l3.6 7.4H7.1l-2.8-5.6H3v5.6H0v-14.2h3zm8.1 0v14.1l9.5.1v-14.2h-9.5zm6.5 11h-3.5v-8h3.5v8zm14.1-11h-9.6v14.2h3.2V240h6.5v-9.8zm-3 6.8h-3.5v-3.8h3.5v3.8zm4.4-6.8v14.1l9.5.1v-14.2h-9.5zm6.6 11h-3.5v-8h3.5v8zm4.5-11h3.1v5.4h3.4v-5.4h3.1v14.2h-3.2v-5.7l-3.4.1.1 5.7h-3.1v-14.3zm19-.2l-7.3.1-1.4 14.2h3.2l.3-3.4h3.2l.4 3.4h3L63.2 230zm-5 7.9l.4-4.7h2.1l.4 4.7h-2.9zm32.7-3l2.3-7.6h3.7L92.2 241c-.5 1.4-1.1 2.3-1.7 2.8s-1.3.8-2.2.8h-1.2l-.1-2.9h.8c.4 0 .8-.1 1-.3s.4-.6.6-1.3l.2-.6-4.9-12.2h3.7l2.5 7.6zm19.1 3.8c-.1 1.9-.6 3.4-1.6 4.4s-2.4 1.5-4.3 1.5-3.4-.6-4.4-1.9-1.5-3.1-1.5-5.4v-2.9c0-2.3.5-4.2 1.6-5.4s2.5-1.9 4.4-1.9c1.9 0 3.3.5 4.2 1.6s1.5 2.5 1.6 4.5h-3.5c0-1.2-.2-2-.6-2.5s-1-.7-1.9-.7c-.9 0-1.6.3-2 1s-.6 1.7-.6 3.2v3.2c0 1.7.2 2.9.6 3.5s1 .9 2 .9c.9 0 1.5-.2 1.9-.7s.5-1.2.6-2.4h3.5zm14.1 5.7h-3.4v-14.2h-5.1v14.2h-3.4v-17.1h12v17.1zm11.6-7.4h-5.4v4.5h6.4v2.9h-9.8v-17.1h9.8v2.9h-6.3v4h5.4v2.8zm14.9 7.4h-3.4v-7.3h-5.1v7.3h-3.4v-17.1h3.4v6.9h5.1v-6.9h3.4v17.1zm14.4-5.7c-.1 1.9-.6 3.4-1.6 4.4s-2.4 1.5-4.3 1.5-3.4-.6-4.4-1.9-1.5-3.1-1.5-5.4v-2.9c0-2.3.5-4.2 1.6-5.4s2.5-1.9 4.4-1.9c1.9 0 3.3.5 4.2 1.6s1.5 2.5 1.6 4.5h-3.5c0-1.2-.2-2-.6-2.5s-1-.7-1.9-.7c-.9 0-1.6.3-2 1s-.6 1.7-.6 3.2v3.2c0 1.7.2 2.9.6 3.5s1 .9 2 .9c.9 0 1.5-.2 1.9-.7s.5-1.2.6-2.4h3.5zm7.1-1.3h-1.5v7h-3.4v-17.1h3.4v6.8h1.2l3-6.8h4.2l-4.2 7.9 4.6 9.1h-4.1l-3.2-6.9zm16.9-10.1h3.4v17.1H189v-11.3l-5 11.3h-3.5v-17.1h3.5v11.3l5-11.3zm14.5 0h3.4v17.1h-3.4v-11.3l-5 11.3H195v-17.1h3.5v11.3l5-11.3zm1.6-4.5c0 1-.4 1.9-1.1 2.5-.7.6-1.7 1-2.9 1s-2.2-.3-3-1c-.7-.6-1.1-1.5-1.1-2.5h2.4c0 .5.1.9.4 1.1s.7.4 1.2.4.9-.1 1.2-.4.4-.6.4-1.1h2.5zM124 87.7h19.4c7.4 0 12.8-2.6 16.2-7.8 3.4-5.2 5.2-12.1 5.2-20.7 0-8.3-1.8-14.7-5.3-19.3-3.5-4.6-8.3-6.9-14.2-6.9-5.6 0-10.1 2.2-13.7 6.6-3.5 4.4-5.3 9.9-5.3 16.6H86.2c0-10.8 2.5-20.4 7.4-29 5-8.5 11.9-15.2 20.8-20S133.3 0 144.1 0c19 0 33.8 5.2 44.6 15.7s16.1 24.8 16.1 43c0 9.3-2.4 18-7.3 26s-11.3 14.1-19.2 18.3c9.7 4.2 17 10.4 21.7 18.7 4.8 8.3 7.2 18.1 7.2 29.5 0 18.3-5.8 33-17.5 44s-27 16.6-46 16.6c-17.7 0-32-5.5-43-16.4-11-10.9-16.5-25.2-16.5-43h40.1c0 7.4 1.9 13.7 5.8 18.8 3.9 5.1 8.8 7.6 14.7 7.6 6.9 0 12.3-2.6 16.4-7.7 4-5.1 6-12 6-20.5 0-20.4-7.9-30.6-23.6-30.7H124V87.7z"/></symbol><symbol viewBox="0 0 340.69 340.69" id="woman" xmlns="http://www.w3.org/2000/svg"><path d="M281.41 189.572h-9.16V176.56a7.5 7.5 0 0 0-7.5-7.5h-61.063a7.5 7.5 0 0 0-7.5 7.5v13.012h-9.161a7.5 7.5 0 0 0-7.5 7.5V314.63c0 14.37 11.691 26.06 26.061 26.06h57.264c14.369 0 26.06-11.69 26.06-26.06V197.072a7.502 7.502 0 0 0-7.501-7.5zm-70.223-5.511h46.063v5.512h-46.063v-5.512zM273.91 314.63c0 6.099-4.961 11.06-11.06 11.06h-57.264c-6.099 0-11.061-4.961-11.061-11.06V204.572h79.384V314.63zM153.664 207.292h-9.16V96.858a7.5 7.5 0 0 0-7.5-7.5h-.978V34.897c0-.318-.022-7.882-1.987-15.558C129.732 2.513 119.951 0 114.503 0c-6.851 0-14.232 6.165-24.684 20.615-6.467 8.941-11.648 17.736-11.866 18.106a7.496 7.496 0 0 0-1.033 3.799v46.837h-.977a7.5 7.5 0 0 0-7.5 7.5v110.434H59.28a7.5 7.5 0 0 0-7.5 7.5v99.837c0 14.37 11.69 26.06 26.061 26.06h57.263c14.37 0 26.061-11.69 26.061-26.06v-99.837a7.501 7.501 0 0 0-7.501-7.499zM91.919 44.581c8.553-14.226 18.892-27.509 23.01-29.533 3.648.832 6.073 12.228 6.098 19.849v54.461H91.919V44.581zm-8.478 59.777h46.063v102.934H83.441V104.358zm62.723 210.272c0 6.099-4.962 11.06-11.061 11.06H77.84c-6.099 0-11.061-4.961-11.061-11.06v-92.337h79.384v92.337z"/></symbol></svg>